<svg width="37" height="37" fill="none" xmlns="http://www.w3.org/2000/svg"><g clip-path="url(#clip0)"><path d="M37 6.345v-.012a.503.503 0 00-.004-.048c0-.006-.002-.011-.003-.017a.498.498 0 00-.027-.105l-.002-.008-1.47-3.764a.976.976 0 00-.915-.624h-2.677a.528.528 0 100 1.057h2.626l1.17 2.995H24.636l-.693-2.995h4.085a.528.528 0 100-1.057H6.654a.976.976 0 00-.914.624L4.27 6.155l-.003.008a.518.518 0 00-.027.105l-.003.017a.546.546 0 00-.003.048v7.776a.528.528 0 101.056 0V6.876h11.199v8.03a.8.8 0 001.33.599l2.797-2.48 2.799 2.48a.8.8 0 001.33-.599v-8.03h11.198v23.697c0 .38-.308.688-.687.688h-9.688v-.018a2.213 2.213 0 00-.007-.142 1.904 1.904 0 002.246-1.12 1.888 1.888 0 00-.068-1.584l-.012-.023a1.918 1.918 0 00-.068-.118l-.014-.022a1.867 1.867 0 00-.079-.115l-.002-.002a1.889 1.889 0 00-.086-.106l-.017-.02a1.878 1.878 0 00-.216-.205l-.003-.003a1.897 1.897 0 00-.11-.08l-.02-.015a1.956 1.956 0 00-.115-.071l-.01-.006c.224-.194.4-.438.515-.72.192-.47.189-.986-.008-1.454a1.887 1.887 0 00-1.035-1.024l-8.222-3.352 3.827-1.185a1.736 1.736 0 001.143-2.165 1.697 1.697 0 00-.58-.837 1.778 1.778 0 00-1.459-.343l-.007.002a243.955 243.955 0 01-6.736 1.4l-.087.017a126.628 126.628 0 01-.72.135c-3.849.709-4.93.721-5.23.68h-.003l-.014-.002-.008-.001a.407.407 0 01-.05-.011l-.087-.036.107-.264a1.045 1.045 0 00-.103-.988 1.045 1.045 0 00-.473-.384l-2.838-1.157a1.044 1.044 0 00-.805.005c-.26.109-.46.312-.566.572l-3.47 8.51c-.22.537.04 1.152.577 1.371l2.837 1.158a1.054 1.054 0 001.371-.577l.027-.064.654.266h.001a5.804 5.804 0 012.331 1.74 6.865 6.865 0 002.757 2.058l.736.3H5.977a.688.688 0 01-.687-.688v-1.337a.528.528 0 10-1.057 0v1.337c0 .962.783 1.744 1.744 1.744h7.984l6.806 2.775a1.904 1.904 0 002.608-1.964c.353.052.72.005 1.053-.139.338-.146.619-.378.817-.672h10.01c.962 0 1.745-.782 1.745-1.744V6.345zM18.375 2.824h4.483l.693 2.995h-5.87l.694-2.995zm-1.778 2.995H5.535l1.17-2.995H17.29l-.693 2.995zm7.09 8.516l-2.54-2.251a.798.798 0 00-1.06 0l-2.541 2.25V6.877h6.142v7.459zm-19.8 12.222l-2.829-1.153 3.466-8.501 2.83 1.153-3.467 8.501zm21.107 3.189l-.606-.248h-.001l-6.316-2.575a.528.528 0 00-.399.978l6.316 2.575a.81.81 0 01.076.036l.02.012.052.03.022.017a.48.48 0 01.043.032l.024.022.037.033.022.025.032.034.021.029c.01.012.019.023.027.036l.02.031.022.037.017.034.018.037c.006.012.01.025.015.037l.014.038.01.039.011.038.007.04.007.039.004.04c0 .014.002.027.003.04v.04c0 .014 0 .028-.002.042 0 .013-.002.026-.004.039a.3.3 0 01-.005.042l-.008.038c-.003.015-.005.029-.01.043-.002.013-.007.025-.01.038l-.015.042a.758.758 0 00-.013.029l-.002.006a.821.821 0 01-.434.428.894.894 0 01-.688.01l-1.119-.457-.015-.006-.016-.007-5.136-2.094a.528.528 0 10-.4.978l5.137 2.095.017.006.014.006a.845.845 0 01-.637 1.564L14.265 31.3l-3.233-1.318a5.802 5.802 0 01-2.331-1.74 6.847 6.847 0 00-2.757-2.057l-.655-.267 1.305-3.2 1.233-3.024.09.037c.086.035.209.084.537.097.41.018 1.09-.025 2.307-.197a75.813 75.813 0 003.029-.504l.087-.016.168-.03.132-.026.152-.028.164-.031.133-.025.204-.04.105-.02.32-.061a244.402 244.402 0 006.134-1.285.257.257 0 01.04-.006c.339-.05.672.146.769.462a.676.676 0 01-.446.845l-5.238 1.622a.528.528 0 00-.043.994l9.59 3.91a.838.838 0 01.46.454.839.839 0 01.003.646.839.839 0 01-.777.526h-.005a.826.826 0 01-.077-.003c-.008 0-.015-.003-.023-.003-.02-.003-.039-.005-.058-.009-.013-.002-.025-.006-.037-.009l-.044-.01-.044-.016-.035-.012-6.316-2.575a.528.528 0 10-.399.978l7.657 3.122a.838.838 0 01.46.454.838.838 0 01-.23.968l-.013.013a.846.846 0 01-.855.129l-.734-.3z" fill="#BA0F08"/></g><defs><clipPath id="clip0"><path fill="#fff" d="M0 0h37v37H0z"/></clipPath></defs></svg>