<svg width="37" height="36" fill="none" xmlns="http://www.w3.org/2000/svg"><g clip-path="url(#clip0)" fill="#BA0F08"><path d="M11.943 29.382c.3 0 .542-.23.542-.513v-.336c.766-.18 1.36-.73 1.52-1.454.191-.867-.279-1.676-1.198-2.062l-.322-.136v-1.56c.19.072.31.145.317.15.245.159.581.1.752-.13a.495.495 0 00-.136-.714 3.17 3.17 0 00-.933-.38v-.283c0-.283-.243-.513-.542-.513-.3 0-.542.23-.542.513v.217c-.082.01-.165.024-.25.043a1.618 1.618 0 00-1.259 1.266c-.128.625.12 1.248.632 1.587.22.146.518.297.877.46v2.011c-.221-.033-.393-.108-.662-.274a.561.561 0 00-.75.148.496.496 0 00.157.71c.475.294.822.408 1.255.447v.29c0 .284.243.513.542.513zm1.001-2.513a.874.874 0 01-.459.576V26.01c.365.195.536.509.46.858zm-1.798-2.632c-.197-.13-.225-.378-.19-.551.019-.09.105-.39.439-.463h.006v1.162a3.057 3.057 0 01-.255-.148zM30.91.666H6.09c-.3 0-.542.23-.542.513v22.236c0 .284.243.513.542.513.3 0 .542-.23.542-.513V1.691h23.736v4.375c0 .283.243.512.542.512.3 0 .542-.23.542-.512V1.179a.528.528 0 00-.542-.513z"/><path d="M30.91 7.952c-.3 0-.542.23-.542.513V33.76l-1.527-1.7a.556.556 0 00-.413-.18.555.555 0 00-.413.18l-2.069 2.303-2.07-2.303a.556.556 0 00-.412-.18.555.555 0 00-.413.18l-2.069 2.303-2.07-2.303a.556.556 0 00-.412-.18.555.555 0 00-.413.18l-2.07 2.303-2.068-2.303a.555.555 0 00-.413-.18.555.555 0 00-.413.18l-2.07 2.303-2.068-2.303a.555.555 0 00-.413-.18.555.555 0 00-.413.18l-1.527 1.7v-7.944c0-.283-.243-.513-.542-.513-.3 0-.542.23-.542.513v9.338c0 .215.142.407.355.482a.563.563 0 00.6-.15l2.07-2.302 2.068 2.302a.554.554 0 00.413.181c.159 0 .31-.066.413-.18l2.069-2.303 2.069 2.303c.103.114.254.18.413.18.159 0 .31-.066.412-.18l2.07-2.303 2.07 2.302a.55.55 0 00.412.181c.16 0 .31-.066.413-.18l2.07-2.303 2.068 2.302a.554.554 0 00.413.181c.16 0 .31-.066.413-.18l2.069-2.303 2.07 2.302a.556.556 0 00.6.15.515.515 0 00.354-.482V8.465a.528.528 0 00-.542-.513zm-5.84-5.076H11.93c-.3 0-.542.23-.542.512v2.21c0 .283.243.513.542.513h13.14c.3 0 .542-.23.542-.513v-2.21c0-.283-.243-.512-.542-.512zm-.542 2.21H12.472V3.9h12.056v1.184zM8.864 13.845h11.68c.3 0 .542-.23.542-.513 0-.283-.243-.513-.542-.513H8.864c-.3 0-.542.23-.542.513 0 .283.243.513.542.513zm-.542-3.275c0 .283.243.513.542.513h11.68c.3 0 .542-.23.542-.513 0-.283-.243-.513-.542-.513H8.864c-.3 0-.542.23-.542.513z"/><path d="M8.864 16.607h11.68c.3 0 .542-.23.542-.513 0-.283-.243-.512-.542-.512H8.864c-.3 0-.542.23-.542.512 0 .284.243.513.542.513zm0 2.763h11.68c.3 0 .542-.23.542-.514 0-.283-.243-.512-.542-.512H8.864c-.3 0-.542.23-.542.512 0 .284.243.513.542.513zm19.272-6.55h-2.482c-.3 0-.542.229-.542.512 0 .283.243.513.542.513h2.482c.3 0 .542-.23.542-.513 0-.283-.243-.513-.542-.513zm0-2.763h-2.482c-.3 0-.542.23-.542.513 0 .283.243.513.542.513h2.482c.3 0 .542-.23.542-.513 0-.283-.243-.513-.542-.513zm0 5.525h-2.482c-.3 0-.542.23-.542.512 0 .284.243.513.542.513h2.482c.3 0 .542-.23.542-.513 0-.283-.243-.512-.542-.512zm0 2.762h-2.482c-.3 0-.542.23-.542.512 0 .284.243.513.542.513h2.482c.3 0 .542-.23.542-.512 0-.284-.243-.513-.542-.513zm0 2.762h-2.482c-.3 0-.542.23-.542.513 0 .283.243.512.542.512h2.482c.3 0 .542-.23.542-.512 0-.283-.243-.513-.542-.513z"/></g><defs><clipPath id="clip0"><path fill="#fff" transform="translate(0 .666)" d="M0 0h37v35H0z"/></clipPath></defs></svg>