<svg width="37" height="38" fill="none" xmlns="http://www.w3.org/2000/svg"><g clip-path="url(#clip0)" fill="#BA0F08"><path d="M23.914 3a.541.541 0 00-.78.174l-.013.018a.55.55 0 01-.766.135.542.542 0 00-.755.133l-.79 1.128a.542.542 0 00.888.622l.532-.76c.5.14 1.043.032 1.452-.29l.8.56a.542.542 0 00.621-.888l-1.189-.833zm5.994 6.826l-.532.76a.542.542 0 00.888.622l.79-1.128a.542.542 0 00-.133-.755.55.55 0 01-.135-.766l.013-.017a.542.542 0 00-.103-.795l-1.19-.832a.542.542 0 00-.621.888l.8.56a1.64 1.64 0 00.223 1.463zm-2.876 12.177c.257 0 .496.103.673.29a.542.542 0 00.788-.744 2.012 2.012 0 00-3.471 1.38 2.012 2.012 0 003.43 1.42.542.542 0 10-.766-.766.927.927 0 11-.655-1.58z"/><path d="M31.858 19.11v-4.34c0-1.474-1.2-2.673-2.673-2.673h-2.877c.169-1.454-.306-2.732-1.307-3.433-.848-.593-1.947-.7-3.094-.3-1.084.38-2.093 1.175-2.839 2.24a6.5 6.5 0 00-.785 1.493h-3.528l7.584-10.832 10.525 7.37-1.603 2.29a.542.542 0 00.887.62l1.748-2.495a.833.833 0 00-.203-1.159L22.755.233a.828.828 0 00-1.159.204l-2.508 3.582V1.86a.833.833 0 00-.832-.832h-13a.833.833 0 00-.832.832v2.967a.542.542 0 101.084 0V2.11h1.57v9.985H5.636c-.043 0-.085.002-.128.004V6.994a.542.542 0 10-1.084 0v5.393a2.676 2.676 0 00-1.461 2.383v16.317a2.676 2.676 0 002.673 2.673h4.047a.542.542 0 100-1.084H5.636a1.59 1.59 0 01-1.59-1.589V14.77a1.592 1.592 0 011.59-1.59h23.549c.876 0 1.589.713 1.589 1.59v4.266h-3.88A3.897 3.897 0 0023 22.929a3.897 3.897 0 003.892 3.892h3.88v4.266a1.59 1.59 0 01-1.588 1.59h-4.142a.542.542 0 100 1.083h4.142a2.677 2.677 0 002.673-2.673v-4.34a2.79 2.79 0 002.141-2.71V21.82a2.79 2.79 0 00-2.141-2.71zm-11.902-7.883c1.236-1.766 3.22-2.517 4.424-1.675.693.486.998 1.438.835 2.544h-5.76a5.71 5.71 0 01.5-.87zm-1.952-5.66l-4.572 6.53h-2.67V2.11h7.242v3.456zM8.162 2.111h1.515v9.985H8.162V2.111zm24.753 21.926c0 .938-.763 1.7-1.7 1.7h-4.322a2.812 2.812 0 01-2.809-2.809 2.812 2.812 0 012.81-2.808h4.32c.938 0 1.7.762 1.7 1.7v2.217z"/><path d="M17.41 23.985a6.556 6.556 0 00-6.548 6.549 6.555 6.555 0 006.548 6.548 6.555 6.555 0 006.548-6.548 6.556 6.556 0 00-6.548-6.549zm0 12.013a5.47 5.47 0 01-5.464-5.464 5.47 5.47 0 015.464-5.464 5.47 5.47 0 015.464 5.464 5.47 5.47 0 01-5.464 5.464z"/><path d="M17.872 29.992h-.924a.495.495 0 010-.988h1.77a.542.542 0 000-1.084h-.666v-.459a.542.542 0 00-1.084 0v.459h-.02a1.58 1.58 0 00-1.578 1.578c0 .87.708 1.578 1.578 1.578h.924a.494.494 0 010 .987h-1.769a.542.542 0 100 1.084h.865v.459a.542.542 0 001.084 0v-.469a1.58 1.58 0 001.399-1.568 1.58 1.58 0 00-1.579-1.577z"/></g><defs><clipPath id="clip0"><path fill="#fff" transform="translate(0 .082)" d="M0 0h37v37H0z"/></clipPath></defs></svg>