<svg width="40" height="40" fill="none" xmlns="http://www.w3.org/2000/svg"><g clip-path="url(#clip0)" fill="#BA0F08"><path d="M39.873 22.638a.587.587 0 00-.825-.095l-1.152.913-9.308-12.22L33.91 7.82a.587.587 0 10-.634-.988L27.42 10.59a.593.593 0 00-.15.85l1.066 1.4-.758.58-3.01-.995a.6.6 0 00-.183-.03h-6.889a.587.587 0 00-.57.445l-.387 1.55-.979-.411a.589.589 0 00-.295-.042l-2.722.318-.925-.536.88-1.524a.593.593 0 00-.215-.802L.88 4.812a.587.587 0 10-.587 1.016l8.935 5.16-7.712 13.356-.636-.368a.587.587 0 10-.587 1.017l3.102 1.791c.277.16.642.062.802-.215l.449-.777 1.266.675a2.464 2.464 0 002.951 3.478c.002.525.169 1.029.486 1.45.48.639 1.225.977 1.976.977.251 0 .503-.038.746-.115.007.49.158.983.467 1.41a2.45 2.45 0 002.003 1.02c.255 0 .506-.04.746-.117.007.503.167.99.468 1.406a2.45 2.45 0 002.003 1.021c.515 0 1.015-.161 1.44-.469l1.37-.99c.296-.215.535-.486.708-.795l2.41 1.313a2.452 2.452 0 001.876.2 2.45 2.45 0 001.469-1.185c.245-.45.342-.955.285-1.455a2.468 2.468 0 002.613-1.245c.251-.461.338-.968.283-1.454a2.468 2.468 0 002.9-2.698 2.44 2.44 0 001.144-.061 2.45 2.45 0 001.468-1.186 2.45 2.45 0 00.026-2.311l1.03-.731.544.714a.593.593 0 00.832.104l1.62-1.285a.587.587 0 00.096-.825zM3.475 25.474l-.94-.543 7.71-13.357.941.543-7.711 13.357zm5.384 3.173a1.293 1.293 0 01-1.803-.289 1.293 1.293 0 01.289-1.803l4.153-3.005a1.286 1.286 0 011.781.26c.438.57.315 1.411-.267 1.832L8.86 28.647zm3.217 2.31a1.298 1.298 0 01-1.788-.269c-.435-.578-.268-1.431.308-1.848l3.104-2.246c.113-.076.218-.155.344-.209.18-.076.378-.11.573-.1a1.3 1.3 0 01.952.506c.437.57.314 1.411-.267 1.832l-3.226 2.334zm3.217 2.31c-.279.202-.62.284-.961.23a1.293 1.293 0 01-.553-2.321l2.212-1.602.086-.062a1.285 1.285 0 011.781.26c.438.57.314 1.412-.267 1.833l-2.298 1.662zm5.108.459c-.05.348-.235.654-.52.86l-1.37.991c-.57.413-1.392.28-1.804-.29a1.304 1.304 0 01.29-1.803l1.282-.928.087-.063a1.299 1.299 0 011.782.26c.214.28.304.625.253.973zm14.293-7.316a1.304 1.304 0 01-1.752.516l-6.788-3.7a.587.587 0 00-.562 1.032l5.688 3.1c.626.34.857 1.127.516 1.752a1.293 1.293 0 01-1.752.516l-5.771-3.146a.587.587 0 00-.562 1.031l4.672 2.547c.625.341.856 1.127.515 1.752a1.304 1.304 0 01-1.752.515l-4.892-2.666a.587.587 0 10-.562 1.031l3.792 2.067c.618.337.854 1.134.516 1.752a1.303 1.303 0 01-1.752.516l-2.66-1.45a2.442 2.442 0 00-.51-1.537 2.456 2.456 0 00-1.833-.966 2.446 2.446 0 00-.456-2.015 2.457 2.457 0 00-1.833-.966 2.446 2.446 0 00-.456-2.016 2.456 2.456 0 00-1.834-.965 2.446 2.446 0 00-.456-2.015 2.453 2.453 0 00-3.4-.496l-4.098 2.964-1.478-.789 5.796-10.038 1.091.634c.11.064.237.09.363.075l2.762-.323 1.004.422-.577 2.307a.589.589 0 00-.018.142v5.01a3.095 3.095 0 003.092 3.092 3.096 3.096 0 003.092-3.092v-4.841l.107-.171 12.232 6.667c.618.337.853 1.133.516 1.752zm.28-2.638a2.51 2.51 0 00-.234-.145l-12.17-6.634.451-.722a.587.587 0 00-.995-.622l-1.271 2.033a.588.588 0 00-.09.311v5.01a1.92 1.92 0 01-1.918 1.918 1.92 1.92 0 01-1.917-1.918v-4.937l1.123-4.495h6.336l3.214 1.062a.59.59 0 00.54-.092l1.003-.767 7.023 9.221-1.095.777zm4.933-20.499a.587.587 0 00-.811-.177l-3.29 2.111a.587.587 0 10.635.988l3.289-2.11a.587.587 0 00.177-.812z"/></g><defs><clipPath id="clip0"><path fill="#fff" d="M0 0h40v40H0z"/></clipPath></defs></svg>