<svg width="38" height="37" fill="none" xmlns="http://www.w3.org/2000/svg"><g clip-path="url(#clip0)" fill="#BA0F08"><path d="M18.017 23.95a.55.55 0 00-.779 0l-1.113 1.113-2.122-2.122 1.114-1.113a.55.55 0 10-.779-.779l-1.158 1.159a1.006 1.006 0 00-1.138.203l-6.456 6.455a.55.55 0 10.779.779l6.392-6.393 3.057 3.057-8.886 8.886a2.15 2.15 0 01-1.554.632 2.146 2.146 0 01-1.54-.67c-.802-.841-.77-2.212.073-3.054l1.056-1.057a.55.55 0 10-.778-.778l-1.057 1.056c-1.261 1.262-1.302 3.323-.09 4.594a3.238 3.238 0 002.362 1.01c.872 0 1.69-.338 2.306-.954l8.95-8.95c.306-.307.373-.763.202-1.137l1.159-1.158a.55.55 0 000-.779zm17.233-9.331a.55.55 0 00-.957.543c.995 1.755 1.144 3.774.45 5.578-1.27-2.276-3.313-4.453-4.925-5.592l2.404-2.403.969.969a.549.549 0 00.778 0 .55.55 0 000-.779l-.968-.968.647-.646a.55.55 0 000-.779l-5.062-5.061a.55.55 0 00-.774-.005.756.756 0 01-.192.137c-.448.226-1.118.044-1.593-.431-.472-.472-.653-1.119-.438-1.575a.744.744 0 01.144-.209.55.55 0 00-.004-.774L23.267.16a.55.55 0 00-.779 0L17.12 5.53a.55.55 0 000 .778l2.462 2.463a.55.55 0 00.773.006.76.76 0 01.2-.14c.446-.217 1.111-.034 1.582.436.473.473.655 1.142.432 1.59a.767.767 0 01-.136.192.55.55 0 00.006.772l.66.66-4.724 4.725a.55.55 0 10.778.779l4.724-4.725L26 15.188l-4.725 4.726a.55.55 0 10.779.778l4.725-4.725.72.72a.551.551 0 00.778 0l.75-.749c1.738 1.163 4.131 3.812 5.221 6.268a.55.55 0 00.978.056c1.388-2.364 1.398-5.221.024-7.643zM19.971 7.603L18.287 5.92l4.59-4.59 1.684 1.684-4.59 4.59zm2.944.691a2.925 2.925 0 00-1.31-.768l2.877-2.876c.123.469.383.927.767 1.31.42.42.937.692 1.46.798l-2.997 2.997a2.894 2.894 0 00-.797-1.46zm4.973 7.225l-4.192-4.191 4.59-4.59 4.194 4.193-4.592 4.588z"/><path d="M33.447 31.29l-.884-.884a.55.55 0 10-.778.779l.883.883c.424.424.657.987.657 1.587s-.233 1.163-.657 1.587a2.23 2.23 0 01-1.587.657 2.23 2.23 0 01-1.587-.657L24.3 30.047a1.863 1.863 0 00-.331-2.191 1.853 1.853 0 00-1.319-.546c-.309 0-.606.075-.872.216l-.394-.395 3.174-3.174.395.395a1.869 1.869 0 00.33 2.19c.353.352.821.546 1.32.546.308 0 .606-.074.871-.215l2.917 2.917a.55.55 0 10.778-.779l-3.247-3.247a.55.55 0 00-.779 0 .76.76 0 01-.54.224.765.765 0 01-.54-1.305.55.55 0 00-.001-.779l-1.115-1.114a.55.55 0 00-.778 0l-.065.064-1.131-1.131a.55.55 0 00-.779 0l-.251.251L8.205 8.237 7.903 6.09a.55.55 0 00-.3-.415L3.85 3.803a.55.55 0 00-.635.103L1.332 5.788a.55.55 0 00-.104.635L3.1 10.177a.55.55 0 00.416.3l2.147.303 1.558 1.558A.55.55 0 108 11.559L6.312 9.871a.55.55 0 00-.313-.156l-2.042-.288-1.566-3.14 1.322-1.322 3.14 1.566.288 2.042a.55.55 0 00.156.313l13.867 13.866-.986.986L9.1 12.66a.55.55 0 10-.778.778L19.4 24.516l-.252.251a.55.55 0 000 .779l1.132 1.131-.065.065a.55.55 0 000 .778l1.115 1.115a.55.55 0 00.779 0 .76.76 0 01.54-.224.76.76 0 01.54.224.759.759 0 01.225.54.76.76 0 01-.224.54.55.55 0 000 .78l5.526 5.525c.632.632 1.472.98 2.365.98.894 0 1.734-.348 2.366-.98a3.323 3.323 0 00.979-2.365c0-.894-.348-1.734-.98-2.366zm-12.389-5.391l-.742-.743 2.015-2.015.251-.251.743.742-2.267 2.267z"/></g><defs><clipPath id="clip0"><path fill="#fff" transform="translate(.222)" d="M0 0h37v37H0z"/></clipPath></defs></svg>