<svg width="37" height="38" fill="none" xmlns="http://www.w3.org/2000/svg"><g clip-path="url(#clip0)" fill="#BA0F08"><path d="M1.233 32.346A1.85 1.85 0 000 34.083v1.85c0 .68.552 1.233 1.233 1.233h34.534c.68 0 1.233-.552 1.233-1.233v-1.85a1.85 1.85 0 00-1.233-1.737V9.92c.257-.088.491-.234.683-.428.354-.344.552-.817.55-1.31a1.85 1.85 0 00-1.85-1.85h-6.783V3.865a1.85 1.85 0 00-1.85-1.85h-8.035a4.648 4.648 0 00-.287-.309c-1.73-1.739-4.252-2.044-5.621-.682-.278.282-.494.62-.632.99h-1.459a1.85 1.85 0 00-1.85 1.85v2.467H1.85a1.802 1.802 0 00-1.3.54A1.815 1.815 0 000 8.181 1.85 1.85 0 001.233 9.92v22.427zm0 1.737c0-.341.276-.617.617-.617h9.867v2.466H1.233v-1.85zm11.717 1.85v-2.467h11.1v2.466h-11.1zm9.25-3.7h-7.4V21.748c0-.681.552-1.233 1.233-1.233h4.934c.68 0 1.233.552 1.233 1.233v10.484zm3.083 3.7v-2.467h9.867c.34 0 .617.276.617.617v1.85H25.283zm9.25-3.7h-11.1V21.748a2.467 2.467 0 00-2.466-2.466h-4.934a2.467 2.467 0 00-2.466 2.466v10.484h-11.1v-22.2H8.56l-1.713 3.424c-.004.007-.004.015-.008.023-.004.007-.009.027-.014.04a.617.617 0 00-.038.185c0 .009-.005.016-.005.024v1.85a2.456 2.456 0 004.317 1.615 2.434 2.434 0 003.7 0 2.434 2.434 0 003.7 0 2.434 2.434 0 003.7 0 2.434 2.434 0 003.7 0 2.456 2.456 0 004.317-1.612v-1.85c0-.008-.005-.015-.005-.024a.614.614 0 00-.038-.185c-.005-.013-.008-.027-.014-.04-.006-.013-.004-.016-.008-.023l-1.713-3.428h6.094v22.2zM27.37 10.649l1.233 2.467H8.398l1.233-2.467H27.37zm-2.086 4.933a1.233 1.233 0 11-2.466 0V14.35h2.466v1.233zm-3.7 0a1.233 1.233 0 11-2.466 0V14.35h2.466v1.233zm-3.7 0a1.233 1.233 0 11-2.466 0V14.35h2.466v1.233zm-3.7 0a1.233 1.233 0 11-2.466 0V14.35h2.466v1.233zm-3.7 0a1.233 1.233 0 11-2.466 0V14.35h2.466v1.233zm16.034-1.233h2.466v1.233a1.233 1.233 0 11-2.466 0V14.35zm8.633-6.783c.34 0 .617.276.617.616a.603.603 0 01-.189.44.595.595 0 01-.428.177h-6.783V7.566h6.783zM12.996 2.765c.267.109.548.18.835.212a1.336 1.336 0 011.284 1.285c.043.604.307 1.17.74 1.593a2.47 2.47 0 001.589.74c.11.015.206.032.298.053-.935.617-2.473.272-3.614-.874a3.474 3.474 0 01-1.132-3.009zm4.327-.185a3.474 3.474 0 011.13 3.006 3.109 3.109 0 00-.834-.212 1.336 1.336 0 01-1.284-1.288 2.476 2.476 0 00-.74-1.592 2.47 2.47 0 00-1.589-.74 3.238 3.238 0 01-.308-.057 1.93 1.93 0 011.082-.308 3.75 3.75 0 012.543 1.189v.002zM9.867 3.866c0-.34.276-.617.616-.617h1.243a4.968 4.968 0 001.53 3.392 4.955 4.955 0 003.424 1.532 3.056 3.056 0 002.196-.852c.992-.996 1.094-2.605.407-4.074h7.234c.34 0 .616.276.616.616v5.55H9.867V3.866zM1.422 7.743a.595.595 0 01.428-.177h6.783v1.233H1.85a.617.617 0 01-.617-.617c0-.166.068-.325.19-.44z"/><path d="M9.867 19.282h-3.7A2.467 2.467 0 003.7 21.75v5.55c0 .681.552 1.233 1.233 1.233H11.1c.681 0 1.233-.552 1.233-1.233v-5.55a2.467 2.467 0 00-2.466-2.466zm-3.7 1.234h3.7c.68 0 1.233.552 1.233 1.233v3.084H4.933v-3.084c0-.681.553-1.233 1.234-1.233zm-1.234 6.783v-1.233H11.1v1.233H4.933zm25.9-8.017h-3.7a2.467 2.467 0 00-2.466 2.467v5.55c0 .681.552 1.233 1.233 1.233h6.167c.68 0 1.233-.552 1.233-1.233v-5.55a2.467 2.467 0 00-2.467-2.466zm-3.7 1.234h3.7c.681 0 1.234.552 1.234 1.233v3.084H25.9v-3.084c0-.681.552-1.233 1.233-1.233zM25.9 27.299v-1.233h6.167v1.233H25.9zm-5.55-2.467a.617.617 0 00-.617.617v1.85a.617.617 0 101.234 0v-1.85a.617.617 0 00-.617-.617zm1.233-19.116h3.7a.617.617 0 000-1.234h-3.7a.617.617 0 000 1.234zM24.05 6.95h-1.233a.617.617 0 100 1.232h1.233a.617.617 0 100-1.233z"/></g><defs><clipPath id="clip0"><path fill="#fff" transform="translate(0 .166)" d="M0 0h37v37H0z"/></clipPath></defs></svg>