<svg width="59" height="59" fill="none" xmlns="http://www.w3.org/2000/svg"><g clip-path="url(#clip0)" fill="#BA0F08"><path d="M18.607 12.505a.908.908 0 00-.908.908 2 2 0 01-1.998 1.998 2 2 0 01-1.998-1.998 2 2 0 011.998-1.998.908.908 0 000-1.816 3.818 3.818 0 00-3.814 3.814 3.819 3.819 0 003.814 3.814 3.819 3.819 0 003.814-3.814.908.908 0 00-.908-.908zm0 10.655a.908.908 0 00-.908.909 2 2 0 01-1.998 1.998 2 2 0 01-1.998-1.998 2 2 0 011.998-1.998.908.908 0 100-1.817 3.819 3.819 0 00-3.814 3.815 3.819 3.819 0 003.814 3.814 3.819 3.819 0 003.814-3.814.908.908 0 00-.908-.909zm10.656 1.938h-6.781a.908.908 0 000 1.817h6.78a.908.908 0 000-1.817zm0-3.875h-6.781a.908.908 0 000 1.817h6.78a.908.908 0 000-1.817zm-1.938 14.53h-4.843a.908.908 0 000 1.817h4.843a.908.908 0 000-1.817zm1.938-3.875h-6.781a.908.908 0 000 1.817h6.78a.908.908 0 000-1.817zm8.717-17.436H22.483a.908.908 0 100 1.817H37.98a.908.908 0 000-1.817zm-3.874-3.875H22.482a.908.908 0 100 1.817h11.624a.908.908 0 100-1.817zM18.607 33.816a.908.908 0 00-.908.908 2 2 0 01-1.998 1.998 2 2 0 01-1.998-1.998 2 2 0 011.998-1.997.908.908 0 000-1.817 3.818 3.818 0 00-3.814 3.814 3.819 3.819 0 003.814 3.815 3.819 3.819 0 003.814-3.815.908.908 0 00-.908-.908z"/><path d="M41.856.88H8.92a2.849 2.849 0 00-2.845 2.846v40.685a2.849 2.849 0 002.845 2.846h16.468a.908.908 0 000-1.817H8.92a1.03 1.03 0 01-1.029-1.029V3.726a1.03 1.03 0 011.03-1.029h32.935a1.03 1.03 0 011.029 1.03v30.029a.908.908 0 001.816 0V3.726A2.849 2.849 0 0041.856.881z"/><path d="M50.43 37.708a3.35 3.35 0 00-2.356.662c-.532-.893-1.438-1.526-2.488-1.63a3.351 3.351 0 00-2.355.661c-.532-.892-1.439-1.525-2.488-1.63a3.355 3.355 0 00-1.854.347V24.553c0-.939-.4-1.839-1.096-2.47a3.345 3.345 0 00-2.574-.843c-1.677.168-2.99 1.684-2.99 3.451v11.595l-2.67 2.67a5.716 5.716 0 00-1.531 5.384l2.027 8.613a7.66 7.66 0 007.484 5.928h8.191c4.24 0 7.69-3.45 7.69-7.689V41.16c0-1.767-1.314-3.283-2.99-3.451zm1.173 13.484a5.88 5.88 0 01-5.873 5.873h-8.19a5.85 5.85 0 01-5.717-4.528l-2.027-8.614a3.91 3.91 0 011.048-3.684l1.385-1.385v3.135a.908.908 0 101.816 0V24.691c0-.845.595-1.567 1.355-1.643.436-.044.853.092 1.174.382.317.287.499.696.499 1.123v15.983a.908.908 0 001.816 0v-1.453a1.517 1.517 0 011.673-1.505c.76.076 1.354.798 1.354 1.643v2.284a.908.908 0 001.817 0v-1.453a1.517 1.517 0 011.673-1.506c.759.076 1.354.798 1.354 1.644v2.284a.908.908 0 101.816 0V41.02a1.517 1.517 0 011.673-1.505c.76.076 1.354.798 1.354 1.643v10.034z"/></g><defs><clipPath id="clip0"><path fill="#fff" transform="translate(.747 .88)" d="M0 0h58v58H0z"/></clipPath></defs></svg>