<svg width="59" height="58" fill="none" xmlns="http://www.w3.org/2000/svg"><g clip-path="url(#clip0)"><path d="M58.389 9.946l-.001-.019a.841.841 0 00-.005-.075l-.004-.027a.814.814 0 00-.042-.164l-.005-.013-2.304-5.9a1.53 1.53 0 00-1.434-.978h-4.196a.828.828 0 100 1.656h4.116l1.834 4.695h-17.34L37.92 4.426h6.404a.828.828 0 100-1.656H10.82a1.53 1.53 0 00-1.434.979l-2.304 5.9-.005.012a.81.81 0 00-.042.164l-.004.027a.86.86 0 00-.005.075l-.001.02v12.17a.828.828 0 101.656 0v-11.34h17.555v12.59a1.255 1.255 0 002.085.938l4.386-3.886 4.386 3.885a1.255 1.255 0 002.084-.938V10.778h17.556v37.147a1.08 1.08 0 01-1.078 1.078H40.469l-.001-.028a3.238 3.238 0 00-.01-.222 2.984 2.984 0 003.52-1.756 2.96 2.96 0 00-.107-2.483l-.018-.037a3.037 3.037 0 00-.106-.184l-.022-.035a3.003 3.003 0 00-.124-.18l-.003-.003a2.982 2.982 0 00-.136-.167l-.026-.03a2.926 2.926 0 00-.145-.15l-.03-.028a2.906 2.906 0 00-.34-.275c-.01-.007-.02-.015-.032-.022a3.016 3.016 0 00-.18-.112l-.015-.01c.35-.303.626-.686.806-1.127a2.96 2.96 0 00-.012-2.28 2.958 2.958 0 00-1.622-1.605l-12.89-5.255 6-1.858a2.72 2.72 0 001.793-3.393 2.659 2.659 0 00-.91-1.313 2.788 2.788 0 00-2.287-.536l-.012.002c-.046.01-4.645 1.045-9.45 1.982l-.625.12-.483.093c-.046.01-.092.018-.137.026a204.274 204.274 0 01-1.129.212c-6.033 1.111-7.728 1.131-8.198 1.067h-.005a.787.787 0 01-.021-.004l-.014-.002a.647.647 0 01-.08-.018l-.135-.055.17-.415a1.638 1.638 0 00-.163-1.548 1.637 1.637 0 00-.742-.6L8.1 24.958a1.637 1.637 0 00-1.262.007 1.64 1.64 0 00-.887.897L.51 39.203a1.65 1.65 0 00.904 2.15l4.449 1.814a1.652 1.652 0 002.15-.904l.04-.1 1.025.417.002.001a9.097 9.097 0 013.655 2.727 10.762 10.762 0 004.321 3.224l1.154.47H9.76a1.08 1.08 0 01-1.078-1.077V45.83a.828.828 0 10-1.656 0v2.095a2.737 2.737 0 002.734 2.734h12.515l10.669 4.35a2.984 2.984 0 004.087-3.078c.555.08 1.13.007 1.652-.218.53-.23.97-.594 1.281-1.054h15.692a2.737 2.737 0 002.734-2.734V9.946zm-29.196-5.52h7.028l1.087 4.695h-9.202l1.087-4.695zM26.406 9.12H9.066L10.9 4.426h16.593L26.406 9.12zm11.115 13.35l-3.983-3.53a1.25 1.25 0 00-1.662 0l-3.983 3.53V10.778h9.628V22.47zM6.482 41.63l-4.434-1.808 5.434-13.326 4.434 1.808L6.482 41.63zm33.088 4.998l-.95-.388h-.003l-9.9-4.037a.828.828 0 10-.625 1.534l9.9 4.036a1.3 1.3 0 01.12.056l.03.02c.028.015.055.03.081.047.013.008.024.018.036.026.023.017.046.033.067.05l.038.034c.019.017.039.034.057.052l.036.039.049.054.034.045.042.056.03.05a.786.786 0 01.035.057c.01.017.018.036.027.054.01.02.02.038.028.058l.023.058.022.059c.007.02.011.04.017.06l.017.06.01.063c.005.02.009.04.012.062l.005.063.005.063v.062c0 .022 0 .043-.002.065-.001.02-.004.04-.007.061l-.007.067-.013.06-.015.067c-.005.02-.012.039-.018.058l-.022.067-.02.045-.004.01c-.13.3-.368.537-.68.671a1.402 1.402 0 01-1.078.014l-1.754-.715-.025-.009-.024-.011-8.052-3.283a.828.828 0 10-.625 1.534l8.051 3.283.026.009c.008.003.016.008.024.01a1.324 1.324 0 01-1 2.451l-10.818-4.41-5.067-2.066a9.094 9.094 0 01-3.655-2.727 10.763 10.763 0 00-4.321-3.225l-1.027-.419 2.045-5.016 1.933-4.741.143.058c.134.055.325.133.84.152.644.03 1.71-.038 3.617-.308 1.297-.183 2.89-.448 4.747-.79l.138-.025.263-.049.207-.038.238-.045.257-.049.208-.04.32-.06.165-.032.501-.097a383.266 383.266 0 009.616-2.014l.062-.01c.532-.079 1.053.229 1.206.725a1.06 1.06 0 01-.699 1.325l-8.21 2.541a.828.828 0 00-.069 1.559l15.033 6.13c.328.133.584.386.72.712.138.326.14.685.006 1.013a1.325 1.325 0 01-1.218.824h-.008c-.04 0-.08-.002-.12-.006-.012 0-.024-.003-.036-.005a1.017 1.017 0 01-.092-.013l-.057-.014a.867.867 0 01-.069-.017c-.023-.006-.046-.016-.07-.024-.018-.006-.036-.012-.054-.02l-9.9-4.036a.828.828 0 10-.626 1.534l12.003 4.894a1.313 1.313 0 01.72.712 1.313 1.313 0 01-.359 1.517l-.022.02a1.327 1.327 0 01-1.339.202l-1.15-.469z" fill="#BA0F08"/></g><defs><clipPath id="clip0"><path fill="#fff" transform="translate(.39)" d="M0 0h58v58H0z"/></clipPath></defs></svg>