<svg width="59" height="59" fill="none" xmlns="http://www.w3.org/2000/svg"><g clip-path="url(#clip0)" fill="#BA0F08"><path d="M48.225 38.818h-5.812v1.938h5.812v-1.938zm-7.75 0h-5.812v1.938h5.812v-1.938zm-7.75 0h-5.812v1.938h5.812v-1.938z"/><path d="M57.9 20.222L38.73 1.052a2.894 2.894 0 00-2.059-.858h-.009a2.87 2.87 0 00-2.043.857l-20.333 20.33H3.664a2.906 2.906 0 00-2.906 2.907v27.124a2.906 2.906 0 002.906 2.906h14.353l2.89 2.894c.544.55 1.286.858 2.06.857h.007a2.87 2.87 0 002.044-.857l2.897-2.894h22.247a2.906 2.906 0 002.907-2.906V29.164l4.826-4.826a2.895 2.895 0 00.005-4.116zM45.577 10.64L34.833 21.382h-8.226L41.463 6.525l4.114 4.114zm-9.585-8.222a.955.955 0 011.367 0l2.734 2.739-16.227 16.226h-6.84L35.992 2.417zM23.647 55.846a.942.942 0 01-.678.29.969.969 0 01-.69-.29l-1.522-1.528h4.418l-1.528 1.528zm27.484-4.434a.969.969 0 01-.969.969H3.664a.969.969 0 01-.969-.97V37.85h48.436v13.562zm0-15.5H2.695V30.1h48.436v5.812zm0-7.75H2.695v-3.874a.97.97 0 01.969-.969h46.498a.97.97 0 01.97.969v3.875zm5.399-5.198l-3.462 3.46v-2.136a2.906 2.906 0 00-2.906-2.906H37.57l9.373-9.374 9.584 9.584c.186.182.29.432.29.693a.95.95 0 01-.286.678z"/><path d="M10.049 50.47a3.87 3.87 0 00.396-.397 3.84 3.84 0 005.1.657 3.939 3.939 0 001.681-3.193 3.875 3.875 0 00-3.875-3.875 2.941 2.941 0 00-.573.049l-.026.007h-.028a3.825 3.825 0 00-2.279 1.286 3.875 3.875 0 10-.396 5.466zm3.057-4.85a1.18 1.18 0 01.245-.02c1.07 0 1.938.867 1.938 1.937a1.9 1.9 0 01-.381 1.137c-.035.047-.062.096-.102.146-.007.008-.016.012-.024.02a1.93 1.93 0 01-1.43.635 1.937 1.937 0 01-.246-3.855zm-5.567-.02a1.937 1.937 0 110 3.875 1.937 1.937 0 010-3.875z"/></g><defs><clipPath id="clip0"><path fill="#fff" transform="translate(.758 .131)" d="M0 0h58v58H0z"/></clipPath></defs></svg>