<svg width="59" height="59" fill="none" xmlns="http://www.w3.org/2000/svg"><g clip-path="url(#clip0)" fill="#BA0F08"><path d="M58.654 34.444a5.37 5.37 0 00-1.573-3.804 6 6 0 001.546-4.613c-.283-3.072-3.05-5.479-6.302-5.479H37.397c.74-2.245 1.923-6.36 1.923-9.666 0-5.242-4.453-9.667-7.25-9.667-2.508 0-4.304 1.414-4.379 1.472a1.21 1.21 0 00-.454.944v8.195l-6.962 15.078-.288.147v-.461a1.21 1.21 0 00-1.208-1.209H6.695a6.047 6.047 0 00-6.041 6.042v19.334a6.047 6.047 0 006.041 6.041h7.25a6.055 6.055 0 005.687-3.995c2.01 1.035 4.717 1.579 6.397 1.579H48.21c2.632 0 4.935-1.774 5.477-4.22a5.456 5.456 0 00-.435-3.632 5.415 5.415 0 002.419-7.25 5.416 5.416 0 002.982-4.836zm-5.097 2.982a1.209 1.209 0 00-.691 2.08c.614.578.955 1.357.955 2.188a3.012 3.012 0 01-2.678 2.982c-.467.056-.86.372-1.01.82a1.21 1.21 0 00.319 1.26c.795.75 1.114 1.801.875 2.884-.298 1.349-1.608 2.325-3.115 2.325H26.029c-1.963 0-5.254-.92-6.395-2.064a1.208 1.208 0 00-2.064.855 3.63 3.63 0 01-3.625 3.626h-7.25a3.63 3.63 0 01-3.625-3.625V31.423a3.63 3.63 0 013.625-3.625H17.57v1.209c0 .418.218.807.576 1.029.352.213.797.234 1.174.05l2.417-1.208c.244-.12.44-.323.556-.572l7.25-15.709a1.23 1.23 0 00.11-.507V4.286c.503-.278 1.376-.655 2.417-.655 1.325 0 4.834 3.292 4.834 7.25 0 4.254-2.315 10.385-2.337 10.445-.14.37-.092.788.133 1.117.227.326.6.522.995.522h16.63c2.015 0 3.726 1.443 3.895 3.284a3.61 3.61 0 01-1.72 3.42c-.37.227-.59.638-.573 1.075.017.438.268.829.655 1.03a2.992 2.992 0 011.655 2.67 3.012 3.012 0 01-2.68 2.982z"/><path d="M18.779 27.798a1.21 1.21 0 00-1.209 1.208v21.75a1.209 1.209 0 002.417 0v-21.75c0-.667-.541-1.208-1.208-1.208z"/></g><defs><clipPath id="clip0"><path fill="#fff" transform="translate(.654 .006)" d="M0 0h58v58H0z"/></clipPath></defs></svg>