<svg width="14" height="14" fill="none" xmlns="http://www.w3.org/2000/svg"><g clip-path="url(#clip0)" fill="#2E8BC8"><path d="M11.907 3.558A4.825 4.825 0 008.765.416C7.198-.069 5.532.201 4.26 1.138a4.975 4.975 0 00-2.017 3.989c0 1.08.342 2.107.989 2.969l3.964 5.083 3.964-5.084c.968-1.29 1.24-2.944.747-4.537zM7.196 7.793a2.67 2.67 0 01-2.667-2.666A2.67 2.67 0 017.196 2.46a2.67 2.67 0 012.667 2.667 2.67 2.67 0 01-2.667 2.666z"/><path d="M7.196 3.227a1.903 1.903 0 100 3.805c1.05 0 1.905-.855 1.905-1.905s-.855-1.9-1.905-1.9z"/></g><defs><clipPath id="clip0"><path fill="#fff" transform="translate(.695 .18)" d="M0 0h13v13H0z"/></clipPath></defs></svg>