<svg width="46" height="46" fill="none" xmlns="http://www.w3.org/2000/svg"><g clip-path="url(#clip0)" fill="#303030"><path d="M14.82 29.134h23.91c.588 0 1.106-.391 1.267-.957L45.271 9.72a1.318 1.318 0 00-1.268-1.68H11.78l-.943-4.242A1.319 1.319 0 009.55 2.766H1.64a1.318 1.318 0 100 2.637h6.853l4.76 21.42a3.96 3.96 0 00-2.385 3.629 3.96 3.96 0 003.956 3.955H38.73a1.318 1.318 0 100-2.637H14.824a1.32 1.32 0 01-.003-2.636zm27.435-18.458l-4.52 15.82H15.881l-3.516-15.82h29.89zm-28.75 27.686a3.96 3.96 0 003.955 3.955 3.96 3.96 0 003.955-3.955 3.96 3.96 0 00-3.955-3.955 3.96 3.96 0 00-3.955 3.955zm3.955-1.319a1.32 1.32 0 011.319 1.319 1.32 1.32 0 01-1.319 1.318 1.32 1.32 0 01-1.318-1.318 1.32 1.32 0 011.318-1.319zm14.678 1.319a3.96 3.96 0 003.955 3.955 3.96 3.96 0 003.955-3.955 3.96 3.96 0 00-3.955-3.955 3.96 3.96 0 00-3.955 3.955zm3.955-1.319a1.32 1.32 0 011.318 1.319 1.32 1.32 0 01-1.318 1.318 1.32 1.32 0 01-1.318-1.318 1.32 1.32 0 011.318-1.319z"/></g><defs><clipPath id="clip0"><path fill="#fff" transform="translate(.322 .041)" d="M0 0h45v45H0z"/></clipPath></defs></svg>