<svg width="14" height="14" fill="none" xmlns="http://www.w3.org/2000/svg"><g clip-path="url(#clip0)" fill="#2E8BC8"><path d="M7.322 11.377l.95.303-.205-.965-.745.662zm-.499-4.834a.217.217 0 11-.435 0 .217.217 0 01.435 0z"/><path d="M6.605.043C3.001.043.08 2.953.08 6.543s2.922 6.5 6.526 6.5c3.605 0 6.527-2.91 6.527-6.5S10.21.043 6.605.043zm2.038 11.288l.133.625a.217.217 0 01-.278.25l-1.67-.532a.217.217 0 01-.079-.368l1.31-1.163a.218.218 0 01.357.116l.136.637a4.755 4.755 0 002.416-6.29A4.786 4.786 0 004.653 2.2a4.755 4.755 0 00.293 8.816L6.202 7.05a.636.636 0 01-.183-.784L4.277 4.53a.216.216 0 01.006-.307.218.218 0 01.302 0l1.74 1.734a.651.651 0 01.936.582.651.651 0 01-.649.654l-1.318 4.161a.217.217 0 01-.097.121.232.232 0 01-.18.022 5.196 5.196 0 01-3.393-6.536C2.501 2.223 5.44.711 8.188 1.584a5.198 5.198 0 013.392 6.537 5.21 5.21 0 01-2.937 3.21zm1.443-4.788c0-.12.098-.216.218-.216h.435a.217.217 0 110 .433h-.435a.217.217 0 01-.218-.217zM6.823 2.427v.433a.217.217 0 01-.435 0v-.433a.217.217 0 01.435 0zM3.125 6.543c0 .12-.098.217-.218.217h-.435a.217.217 0 110-.433h.435c.12 0 .218.097.218.216z"/></g><defs><clipPath id="clip0"><path fill="#fff" transform="translate(.08 .043)" d="M0 0h13.053v13H0z"/></clipPath></defs></svg>