<svg width="66" height="65" fill="none" xmlns="http://www.w3.org/2000/svg"><g clip-path="url(#clip0)" fill="#BA0F08"><path d="M55.214 40.534a25.74 25.74 0 004.366-14.356C59.58 11.743 47.656 0 32.999 0S6.419 11.743 6.419 26.178a25.745 25.745 0 004.365 14.356L.387 55.468l11.897-2.185L14.502 65l9.805-14.083A26.829 26.829 0 0033 52.355c3.043 0 5.967-.507 8.692-1.438L51.496 65l2.218-11.717 11.897 2.185-10.397-14.934zm-38.61 14.672l-1.21-6.392-6.488 1.193 4.378-6.29a26.703 26.703 0 007.388 5.647l-4.067 5.842zM10.31 26.178C10.31 13.856 20.489 3.831 33 3.831c12.512 0 22.691 10.025 22.691 22.347C55.691 38.5 45.512 48.525 33 48.525c-12.512 0-22.69-10.025-22.69-22.347zm40.294 22.637l-1.21 6.39-4.067-5.84a26.703 26.703 0 007.388-5.648l4.379 6.29-6.49-1.192z"/><path d="M28.26 31.927l-6.324-6.229-2.75 2.71 9.075 8.936 18.552-18.27-2.75-2.709L28.26 31.928z"/></g><defs><clipPath id="clip0"><path fill="#fff" d="M0 0h66v65H0z"/></clipPath></defs></svg>