<svg width="18" height="18" fill="none" xmlns="http://www.w3.org/2000/svg"><g clip-path="url(#clip0)" fill="#BA0F08"><path d="M16.728 4.277h-1.303a1.91 1.91 0 00.318-.855c.103-.98-.44-1.859-1.365-2.248a2.38 2.38 0 00-2.494.381l-1.645 1.416a1.789 1.789 0 00-1.292-.542c-.512 0-.973.21-1.293.544L6.007 1.555a2.382 2.382 0 00-2.494-.38c-.925.389-1.468 1.268-1.365 2.248.033.306.146.596.318.854H1.167C.522 4.277 0 4.773 0 5.386v1.663c0 .306.261.554.584.554H17.31c.323 0 .584-.248.584-.554V5.386c0-.613-.523-1.109-1.167-1.109zm-9.531-.185v.185H4.452c-.726 0-1.296-.642-1.115-1.36.08-.316.32-.585.63-.721a1.169 1.169 0 011.257.18l1.973 1.7v.016zm7.388-.817c-.044.576-.592 1.002-1.2 1.002h-2.687v-.205L12.64 2.4c.3-.258.718-.378 1.104-.268.555.157.881.605.84 1.143zM1.167 8.712v8.13c0 .613.522 1.109 1.167 1.109H7.78v-9.24H1.167zm8.947 0v9.239h5.447c.644 0 1.167-.496 1.167-1.109v-8.13h-6.614z"/></g><defs><clipPath id="clip0"><path fill="#fff" transform="translate(0 .966)" d="M0 0h17.895v17H0z"/></clipPath></defs></svg>