<svg width="65" height="65" fill="none" xmlns="http://www.w3.org/2000/svg"><g clip-path="url(#clip0)"><path d="M60.042 18.242H47.386c.908-.62 1.688-1.236 2.232-1.788 3.224-3.244 3.224-8.523 0-11.767-3.132-3.152-8.596-3.156-11.732 0-1.732 1.74-6.336 8.823-5.7 13.555h-.288c.632-4.732-3.968-11.815-5.7-13.555-3.136-3.156-8.6-3.152-11.732 0-3.224 3.244-3.224 8.523-.004 11.767.548.552 1.328 1.168 2.236 1.788H4.042c-2.204 0-4 1.796-4 4v10a2 2 0 002 2h2v24c0 2.205 1.796 4 4 4h48c2.204 0 4-1.795 4-4v-24h2a2 2 0 002-2v-10c0-2.204-1.796-4-4-4zM17.302 7.508a4.248 4.248 0 013.032-1.264c1.14 0 2.216.448 3.028 1.264 2.696 2.712 5.376 9.64 4.444 10.603 0 0-.168.133-.74.133-2.764 0-8.04-2.872-9.764-4.608a4.363 4.363 0 010-6.128zm12.74 50.736h-22v-24h22v24zm0-28h-26v-8h26v8zm10.68-22.736c1.624-1.628 4.44-1.624 6.06 0a4.363 4.363 0 010 6.127c-1.724 1.736-7 4.608-9.764 4.608-.572 0-.74-.128-.744-.132-.928-.963 1.752-7.891 4.448-10.603zm15.32 50.736h-22v-24h22v24zm4-28h-26v-8h26v8z" fill="#BA0F08"/></g><defs><clipPath id="clip0"><path fill="#fff" transform="translate(.042 .282)" d="M0 0h64v64H0z"/></clipPath></defs></svg>