<svg width="22" height="23" fill="none" xmlns="http://www.w3.org/2000/svg"><g clip-path="url(#clip0)" fill="#BA0F08"><path d="M21.54 4.368c-3.019 2.557-8.317 7.056-9.874 8.459-.21.189-.433.285-.666.285-.232 0-.456-.095-.665-.284C8.777 11.424 3.48 6.925.46 4.368a.458.458 0 01-.064-.632 1.82 1.82 0 011.438-.707h18.334a1.82 1.82 0 011.438.707.458.458 0 01-.064.632zM.266 5.754a.456.456 0 01.488.066c1.978 1.676 4.583 3.89 6.548 5.58a.458.458 0 01-.012.706C5.464 13.568 2.713 15.58.726 17.009a.456.456 0 01-.477.036.458.458 0 01-.25-.408V6.17c0-.178.105-.34.267-.415zm21.008 11.255c-1.987-1.43-4.74-3.441-6.564-4.904a.458.458 0 01-.013-.705c1.965-1.69 4.57-3.904 6.548-5.58a.459.459 0 01.755.35v10.467a.458.458 0 01-.726.372z"/><path d="M.562 18.256c1.918-1.372 5.453-3.932 7.563-5.644a.46.46 0 01.59.01c.414.361.76.666 1.006.887.755.68 1.802.68 2.559-.001a81 81 0 011.005-.886.457.457 0 01.59-.01c2.102 1.706 5.64 4.269 7.563 5.644a.46.46 0 01.069.685 1.836 1.836 0 01-1.34.588H1.833c-.504 0-.993-.214-1.34-.588a.459.459 0 01.069-.685z"/></g><defs><clipPath id="clip0"><path fill="#fff" transform="matrix(-1 0 0 1 22 .28)" d="M0 0h22v22H0z"/></clipPath></defs></svg>