<svg width="18" height="18" fill="none" xmlns="http://www.w3.org/2000/svg"><g clip-path="url(#clip0)"><path d="M16.538 11.48a9.712 9.712 0 01-3.05-.485 1.309 1.309 0 00-1.326.281l-1.931 1.457a10.783 10.783 0 01-4.798-4.797l1.418-1.884c.358-.359.486-.887.332-1.37a9.721 9.721 0 01-.487-3.053c0-.741-.601-1.342-1.343-1.342H2.222C1.48.287.88.887.88 1.629c.01 8.644 7.014 15.648 15.658 15.658.74 0 1.342-.601 1.342-1.342v-3.123c0-.741-.601-1.342-1.342-1.342z" fill="#BA0F08"/></g><defs><clipPath id="clip0"><path fill="#fff" transform="translate(.88 .287)" d="M0 0h17v17H0z"/></clipPath></defs></svg>