<svg width="67" height="66" fill="none" xmlns="http://www.w3.org/2000/svg"><g clip-path="url(#clip0)"><path d="M37.857 4.19c-13.964 0-25.63 9.988-28.252 23.19L4.13 20.534l-3.462 2.77 8.865 11.081a2.219 2.219 0 002.722.599l13.297-6.65-1.984-3.964-9.77 4.885C15.608 17.589 25.69 8.622 37.856 8.622c13.441 0 24.378 10.937 24.378 24.378S51.298 57.378 37.857 57.378v4.432c15.886 0 28.81-12.925 28.81-28.81 0-15.886-12.924-28.81-28.81-28.81z" fill="#BA0F08"/></g><defs><clipPath id="clip0"><path fill="#fff" transform="translate(.667)" d="M0 0h66v66H0z"/></clipPath></defs></svg>