<svg xmlns="http://www.w3.org/2000/svg" xmlns:xlink="http://www.w3.org/1999/xlink"><defs>
<clipPath id="clip0">
<rect width="37" height="37"/>
</clipPath>

<clipPath id="clip0">
<rect width="37" height="35" transform="translate(0 0.666016)"/>
</clipPath>

<clipPath id="clip0">
<rect width="37" height="37" transform="translate(0 0.081665)"/>
</clipPath>

<clipPath id="clip0">
<rect width="40" height="40"/>
</clipPath>

<clipPath id="clip0">
<rect width="37" height="37" transform="translate(0.222168)"/>
</clipPath>

<clipPath id="clip0">
<rect width="37" height="37" transform="translate(0 0.165771)"/>
</clipPath>

<clipPath id="clip0">
<rect width="58" height="58" transform="translate(0.74707 0.880859)"/>
</clipPath>

<clipPath id="clip0">
<rect width="58" height="58" transform="translate(0.38916)"/>
</clipPath>

<clipPath id="clip0">
<rect width="58" height="58" transform="translate(0.757812 0.131348)"/>
</clipPath>

<clipPath id="clip0">
<rect width="58" height="58" transform="translate(0.653809 0.00634766)"/>
</clipPath>

<clipPath id="clip0">
<rect width="13" height="13" transform="translate(0.695312 0.179199)"/>
</clipPath>

<clipPath id="clip0">
<rect width="12" height="11" transform="translate(0.482788 0.5)"/>
</clipPath>

<clipPath id="clip0">
<rect width="45" height="45" transform="translate(0.321655 0.0414429)"/>
</clipPath>

<clipPath id="clip0">
<rect width="13.0526" height="13" transform="translate(0.0791016 0.043457)"/>
</clipPath>

<clipPath id="clip0">
<rect width="23" height="20"/>
</clipPath>

<clipPath id="clip0">
<rect width="66" height="65"/>
</clipPath>

<clipPath id="clip0">
<rect width="17.8947" height="17" transform="translate(0 0.965851)"/>
</clipPath>

<clipPath id="clip0">
<rect width="64" height="64" transform="translate(0.0419922 0.281799)"/>
</clipPath>

<clipPath id="clip0">
<rect width="22" height="22" transform="matrix(-1 0 0 1 22 0.279297)"/>
</clipPath>

<clipPath id="clip0">
<rect width="18.5455" height="17" transform="translate(0.00012207 0.84729)"/>
</clipPath>

<clipPath id="clip0">
<rect width="14.1176" height="15" transform="translate(0 0.757812)"/>
</clipPath>

<clipPath id="clip0">
<rect width="17" height="17" transform="translate(0.879761 0.286804)"/>
</clipPath>

<clipPath id="clip0">
<rect width="66" height="66" transform="translate(0.66748)"/>
</clipPath>
</defs><symbol id="01" viewBox="0 0 37 37">
<g clip-path="url(#clip0)">
<path d="M36.9999 6.34518C36.9999 6.34114 36.9994 6.33709 36.9992 6.33297C36.9988 6.31686 36.9979 6.30096 36.996 6.2852C36.9953 6.27942 36.9942 6.27364 36.9933 6.26786C36.9911 6.25333 36.9885 6.23903 36.9851 6.22501C36.9838 6.21944 36.9824 6.21395 36.9809 6.20839C36.9767 6.19314 36.9719 6.17818 36.9664 6.16344C36.9654 6.16062 36.9648 6.15773 36.9637 6.15498L35.4934 2.39125C35.3452 2.012 34.9863 1.76688 34.5791 1.76688H31.9021C31.6103 1.76688 31.3737 2.0034 31.3737 2.29521C31.3737 2.58702 31.6103 2.82354 31.9021 2.82354H34.5279L35.698 5.81888H24.636L23.9429 2.82354H28.0283C28.3201 2.82354 28.5566 2.58702 28.5566 2.29521C28.5566 2.0034 28.3201 1.76688 28.0283 1.76688H23.2783H17.9548H6.65395C6.24666 1.76688 5.88779 2.012 5.73957 2.39139L4.26933 6.15498C4.26825 6.1578 4.26767 6.16069 4.26658 6.16344C4.26109 6.17811 4.25632 6.19307 4.25213 6.20839C4.25061 6.21395 4.24917 6.21944 4.24787 6.22501C4.24454 6.2391 4.24187 6.25341 4.2397 6.26786C4.23883 6.27364 4.23775 6.27942 4.23703 6.2852C4.23522 6.30096 4.23421 6.31686 4.23378 6.33297C4.2337 6.33702 4.2332 6.34107 4.23313 6.34518C4.23313 6.34584 4.23305 6.34649 4.23305 6.34714V14.1092C4.23305 14.401 4.46958 14.6375 4.76139 14.6375C5.05319 14.6375 5.28972 14.401 5.28972 14.1092V6.87554H16.4888V14.9063C16.4888 15.2203 16.6738 15.5065 16.9602 15.6353C17.0651 15.6825 17.1767 15.7056 17.2877 15.7056C17.4796 15.7056 17.6694 15.6366 17.8183 15.5047L20.6165 13.0257L23.4147 15.5046C23.6496 15.713 23.9865 15.7642 24.2729 15.6353C24.5592 15.5064 24.7442 15.2203 24.7442 14.9063V6.87554H35.9433V30.5731C35.9433 30.9522 35.6348 31.2607 35.2557 31.2607H25.5683C25.5683 31.2547 25.5676 31.2487 25.5675 31.2427C25.5669 31.1953 25.5652 31.1479 25.5611 31.101C26.4707 31.3421 27.4426 30.8746 27.8071 29.9807C27.9989 29.5105 27.996 28.9938 27.7991 28.5258C27.7805 28.4817 27.7601 28.4389 27.7386 28.3968C27.7346 28.3891 27.7308 28.3812 27.7268 28.3736C27.7056 28.3334 27.6831 28.2942 27.6593 28.2559C27.6547 28.2485 27.6499 28.2413 27.6452 28.2339C27.62 28.1947 27.594 28.1561 27.5661 28.1191C27.5656 28.1183 27.565 28.1177 27.5645 28.117C27.5369 28.0804 27.5077 28.0451 27.4776 28.0107C27.4721 28.0044 27.4667 27.998 27.4611 27.9917C27.4313 27.9585 27.4003 27.9263 27.3682 27.8953C27.3619 27.8893 27.3556 27.8834 27.3492 27.8775C27.3156 27.8459 27.2812 27.8152 27.2453 27.7862C27.2441 27.7853 27.2429 27.7843 27.2417 27.7834C27.2064 27.755 27.1698 27.7281 27.1324 27.7022C27.1257 27.6975 27.119 27.6928 27.1122 27.6881C27.0748 27.663 27.0365 27.6392 26.9972 27.6166C26.9939 27.6147 26.991 27.6126 26.9876 27.6107C27.2109 27.4174 27.3872 27.1729 27.502 26.8915C27.6937 26.4213 27.6909 25.9046 27.4939 25.4365C27.3217 25.027 27.0188 24.6976 26.6309 24.4932C26.5754 24.464 26.5183 24.4374 26.4595 24.4134L18.2367 21.0605L22.0643 19.8758C22.9749 19.5939 23.4878 18.6227 23.2075 17.7109C23.1029 17.3705 22.8956 17.0835 22.6278 16.8737C22.2293 16.5614 21.6966 16.4204 21.1683 16.5314C21.1658 16.5319 21.1633 16.5324 21.1608 16.533C21.1315 16.5396 18.1973 17.1994 15.1327 17.797C14.9968 17.8235 14.8643 17.8491 14.7337 17.8742C14.6292 17.8943 14.5262 17.9141 14.4251 17.9333C14.396 17.9389 14.3669 17.9444 14.3381 17.9499C14.1596 17.9838 13.9867 18.0162 13.8186 18.0474C13.7509 18.06 13.6839 18.0724 13.6179 18.0846C9.76924 18.7936 8.68808 18.8063 8.38803 18.7657C8.38687 18.7655 8.38586 18.7654 8.38471 18.7652C8.38015 18.7645 8.37567 18.7639 8.37148 18.7632C8.36845 18.7627 8.36563 18.7622 8.36281 18.7618C8.36079 18.7614 8.35862 18.761 8.35667 18.7608C8.33795 18.7574 8.32335 18.7538 8.31208 18.7504L8.2255 18.7152L8.3334 18.4506C8.43948 18.1904 8.43789 17.9046 8.32899 17.6456C8.30174 17.5809 8.26857 17.5197 8.23013 17.4628C8.11479 17.292 7.95169 17.1591 7.75657 17.0795L4.91885 15.9225C4.65877 15.8163 4.37281 15.818 4.11389 15.9269C3.85489 16.0358 3.65392 16.2391 3.54783 16.4991L0.0778602 25.0093C-0.141104 25.5463 0.117678 26.1613 0.654683 26.3804L3.49248 27.5375C3.62205 27.5903 3.7561 27.6153 3.88813 27.6153C4.30315 27.6153 4.69729 27.368 4.86343 26.9607L4.88951 26.8967L5.5438 27.1634C5.54417 27.1636 5.54453 27.1638 5.54496 27.1639C6.17078 27.4191 6.74739 27.7832 7.24645 28.235C7.33722 28.3171 7.42538 28.4022 7.51087 28.49C7.59636 28.5778 7.67903 28.6684 7.75889 28.7617C7.79878 28.8083 7.83802 28.8556 7.87639 28.9035C8.6036 29.8103 9.55692 30.5216 10.6332 30.9605L11.3693 31.2606H5.9774C5.59829 31.2606 5.28979 30.9521 5.28979 30.573V29.2361C5.28979 28.9443 5.05327 28.7078 4.76146 28.7078C4.46965 28.7078 4.23313 28.9443 4.23313 29.2361V30.573C4.23313 31.5348 5.01554 32.3173 5.9774 32.3173H13.9608L20.7668 35.0924C21.0011 35.1879 21.2435 35.2332 21.4822 35.2332C22.2322 35.2332 22.9446 34.7862 23.2449 34.0499C23.368 33.7479 23.4075 33.4322 23.3744 33.1288C23.7284 33.1796 24.0954 33.133 24.4281 32.9893C24.7663 32.8433 25.0465 32.6107 25.2455 32.3172H35.2558C36.2175 32.3172 37 31.5348 37 30.5729V6.34721C37 6.34649 36.9999 6.34591 36.9999 6.34518ZM18.3748 2.82354H22.8583L23.5514 5.81888H17.6817L18.3748 2.82354ZM16.5971 5.81888H5.53506L6.70511 2.82354H17.2902L16.5971 5.81888ZM23.6877 14.3347H23.6876L21.1466 12.0836C20.9955 11.9498 20.8061 11.8829 20.6167 11.8829C20.4272 11.8829 20.2376 11.9498 20.0865 12.0836L17.5456 14.3347V6.87554H23.6877V14.3347ZM3.88683 26.5571L1.05814 25.4038L4.52443 16.9028L7.35312 18.0562L3.88683 26.5571ZM24.9945 29.7455L24.3881 29.4983C24.3878 29.4981 24.3875 29.498 24.3872 29.4979C24.387 29.4978 24.3868 29.4977 24.3866 29.4976C24.3865 29.4976 24.3865 29.4975 24.3864 29.4975L18.0714 26.9226C17.8013 26.8125 17.4929 26.9422 17.3827 27.2124C17.2725 27.4826 17.4022 27.791 17.6725 27.9012L23.9876 30.4762C24.014 30.4869 24.0395 30.4988 24.0641 30.5119C24.0711 30.5156 24.0775 30.5201 24.0843 30.5239C24.1017 30.5337 24.1191 30.5436 24.1355 30.5545C24.1434 30.5598 24.1506 30.5658 24.1582 30.5713C24.1728 30.5817 24.1876 30.592 24.2013 30.6033C24.2096 30.6101 24.2171 30.6176 24.2252 30.6247C24.2374 30.6356 24.25 30.6462 24.2616 30.6578C24.2696 30.6657 24.2768 30.6744 24.2844 30.6827C24.295 30.6941 24.3059 30.7053 24.3159 30.7173C24.3235 30.7265 24.3302 30.7362 24.3374 30.7457C24.3464 30.7576 24.3558 30.7692 24.3641 30.7815C24.3711 30.7917 24.3771 30.8026 24.3836 30.8131C24.3911 30.8252 24.3991 30.8371 24.406 30.8496C24.4122 30.8609 24.4174 30.8727 24.4231 30.8842C24.4292 30.8965 24.4357 30.9087 24.4412 30.9213C24.4465 30.9334 24.4508 30.946 24.4555 30.9584C24.4602 30.9709 24.4654 30.9832 24.4696 30.9959C24.4738 31.0087 24.477 31.0218 24.4805 31.0347C24.4841 31.0475 24.4881 31.0601 24.491 31.073C24.494 31.0861 24.4959 31.0994 24.4982 31.1125C24.5006 31.1257 24.5034 31.1387 24.5051 31.152C24.5068 31.1653 24.5075 31.1787 24.5086 31.1921C24.5097 31.2055 24.5113 31.2189 24.5117 31.2323C24.5121 31.2456 24.5115 31.2589 24.5113 31.2722C24.5112 31.286 24.5114 31.2997 24.5105 31.3135C24.5097 31.3266 24.5078 31.3397 24.5063 31.3527C24.5048 31.3668 24.5037 31.3809 24.5014 31.3949C24.4993 31.4078 24.496 31.4206 24.4933 31.4335C24.4903 31.4477 24.4878 31.4619 24.4839 31.4761C24.4806 31.4886 24.4761 31.501 24.4722 31.5135C24.4677 31.5276 24.4636 31.5418 24.4583 31.5557C24.4538 31.5653 24.4494 31.575 24.4453 31.5848C24.4443 31.587 24.4438 31.5893 24.443 31.5915C24.3604 31.7821 24.2081 31.9335 24.0092 32.0194C23.7902 32.1138 23.5395 32.1172 23.3213 32.0281L22.2024 31.5719C22.1972 31.5698 22.1919 31.5684 22.1867 31.5664C22.1814 31.564 22.1764 31.5613 22.1711 31.5591L17.0347 29.4648C16.7644 29.3547 16.4562 29.4843 16.346 29.7546C16.2358 30.0248 16.3656 30.3331 16.6358 30.4433L21.7721 32.5377C21.7776 32.5399 21.7832 32.5415 21.7887 32.5435C21.7937 32.5457 21.7983 32.5484 21.8035 32.5504C22.2345 32.7262 22.4423 33.2199 22.2665 33.651C22.0907 34.0822 21.5972 34.29 21.1659 34.1141L14.2649 31.3002C14.2647 31.3 14.2644 31.2999 14.2641 31.2998L11.0324 29.982C10.4635 29.75 9.93523 29.4281 9.4689 29.032C9.18909 28.7943 8.93161 28.53 8.70094 28.2424C8.47366 27.9591 8.22435 27.6948 7.9561 27.4519C7.36591 26.9177 6.68408 26.4872 5.94416 26.1854C5.94408 26.1854 5.94401 26.1853 5.94394 26.1853L5.28878 25.9182L6.59368 22.7179L7.82682 19.6937L7.9178 19.7308C8.00343 19.7657 8.12556 19.8153 8.45422 19.8277C8.86484 19.8463 9.54413 19.8034 10.7611 19.6315C11.5889 19.5146 12.6043 19.3455 13.7897 19.1274C13.8189 19.122 13.8478 19.1167 13.8773 19.1112C13.9327 19.101 13.9887 19.0906 14.045 19.0802C14.0887 19.0721 14.1326 19.0638 14.1769 19.0555C14.2274 19.0461 14.278 19.0366 14.329 19.027C14.3832 19.0168 14.438 19.0065 14.493 18.996C14.5371 18.9876 14.5811 18.9793 14.6256 18.9708C14.6928 18.958 14.761 18.945 14.8296 18.9318C14.8648 18.925 14.8997 18.9184 14.9353 18.9116C15.0402 18.8913 15.1465 18.8708 15.2548 18.8498C18.3088 18.2558 21.2565 17.5946 21.389 17.5648C21.4022 17.5621 21.4154 17.5605 21.4286 17.5586C21.768 17.5083 22.1005 17.7046 22.1978 18.0213C22.232 18.1326 22.236 18.2461 22.2144 18.3529C22.1671 18.588 21.9963 18.7908 21.7521 18.8663L16.5141 20.4875C16.3009 20.5536 16.1522 20.7463 16.1425 20.9693C16.1329 21.1923 16.2642 21.3973 16.4709 21.4816L26.0608 25.3919C26.2697 25.477 26.4329 25.6384 26.5203 25.8463C26.6077 26.0542 26.609 26.2837 26.5238 26.4925C26.4386 26.7014 26.2773 26.8645 26.0694 26.952C25.9655 26.9956 25.8562 27.0177 25.7467 27.0184C25.7451 27.0184 25.7435 27.0182 25.7419 27.0182C25.7162 27.0182 25.6906 27.0172 25.6649 27.0148C25.6573 27.0141 25.6498 27.0125 25.6422 27.0116C25.6226 27.0092 25.603 27.007 25.5836 27.0032C25.5713 27.0008 25.5592 26.9972 25.547 26.9943C25.5324 26.9909 25.5177 26.9879 25.5032 26.9836C25.4883 26.9792 25.4736 26.9734 25.4589 26.9681C25.4472 26.9639 25.4352 26.9604 25.4237 26.9557L19.108 24.3805C18.8378 24.2703 18.5295 24.4 18.4193 24.6703C18.3091 24.9405 18.4388 25.2488 18.7091 25.359L26.3659 28.4811C26.4182 28.5024 26.4676 28.5285 26.5136 28.5588C26.6517 28.6499 26.7599 28.7796 26.8254 28.9355C26.9019 29.1174 26.9125 29.3159 26.8568 29.5025C26.8489 29.5292 26.8396 29.5556 26.829 29.5817C26.818 29.6087 26.8058 29.6348 26.7924 29.6599C26.7612 29.7184 26.7233 29.7713 26.681 29.8195C26.6546 29.8495 26.6265 29.8774 26.5966 29.9029C26.5919 29.907 26.5875 29.9116 26.5827 29.9155C26.3899 30.0732 26.1321 30.141 25.8803 30.0901C25.8292 30.0798 25.7784 30.0651 25.7283 30.0447L24.9945 29.7455Z"/>
</g>

</symbol><symbol id="02" viewBox="0 0 37 36">
<g clip-path="url(#clip0)">
<path d="M11.943 29.3821C12.2423 29.3821 12.485 29.1525 12.485 28.8694V28.5334C13.2513 28.3529 13.8456 27.8039 14.0055 27.0788C14.1965 26.2124 13.726 25.4031 12.8069 25.0171C12.7032 24.9735 12.5948 24.928 12.485 24.8814V23.3212C12.6754 23.3926 12.7949 23.4659 12.8019 23.4704C13.0474 23.6298 13.3833 23.5719 13.5535 23.3404C13.7245 23.108 13.6638 22.7885 13.4181 22.6268C13.3932 22.6105 13.0318 22.377 12.485 22.2461V21.9639C12.485 21.6808 12.2423 21.4512 11.943 21.4512C11.6437 21.4512 11.401 21.6808 11.401 21.9639V22.1814C11.3189 22.1918 11.2357 22.2055 11.1511 22.224C10.5061 22.3648 10.0236 22.8501 9.89203 23.4904C9.76369 24.115 10.0118 24.7378 10.5242 25.077C10.7441 25.2226 11.0419 25.3736 11.4011 25.537V27.5482C11.18 27.5151 11.0077 27.4397 10.7391 27.2735C10.4885 27.1184 10.1526 27.1849 9.9888 27.4218C9.8249 27.6587 9.89514 27.9765 10.1456 28.1315C10.6211 28.4257 10.9683 28.5404 11.4011 28.5795V28.8692C11.401 29.1525 11.6437 29.3821 11.943 29.3821ZM12.9442 26.8695C12.8958 27.0893 12.7411 27.3107 12.485 27.4447V26.0111C12.8504 26.2063 13.0213 26.5198 12.9442 26.8695ZM11.1458 24.237C10.9491 24.1067 10.9207 23.8588 10.9561 23.686C10.9746 23.5959 11.0611 23.296 11.3949 23.2232C11.397 23.2227 11.399 23.2226 11.4011 23.2221V24.3851C11.3027 24.3332 11.2157 24.2833 11.1458 24.237Z"/>
<path d="M30.9102 0.666016H6.08984C5.79052 0.666016 5.54785 0.895566 5.54785 1.17871V23.4153C5.54785 23.6985 5.79052 23.928 6.08984 23.928C6.38917 23.928 6.63184 23.6985 6.63184 23.4153V1.69141H30.3682V6.06572C30.3682 6.34887 30.6108 6.57842 30.9102 6.57842C31.2096 6.57842 31.4522 6.34887 31.4522 6.06572V1.17871C31.4522 0.895566 31.2096 0.666016 30.9102 0.666016V0.666016Z"/>
<path d="M30.9102 7.95245C30.6108 7.95245 30.3682 8.182 30.3682 8.46515V33.7586L28.8408 32.0588C28.7377 31.9442 28.5868 31.8782 28.4277 31.8782C28.2687 31.8782 28.1178 31.9443 28.0148 32.0589L25.9461 34.3617L23.8769 32.0589C23.7738 31.9443 23.6229 31.8782 23.4638 31.8782C23.3048 31.8782 23.1539 31.9443 23.0509 32.0589L20.9821 34.3617L18.9129 32.0589C18.8098 31.9443 18.6589 31.8782 18.4999 31.8782C18.3409 31.8782 18.1899 31.9443 18.0869 32.0589L16.0176 34.3617L13.949 32.0589C13.846 31.9443 13.6951 31.8782 13.536 31.8782C13.377 31.8782 13.226 31.9442 13.1231 32.0588L11.0538 34.3616L8.98517 32.0588C8.88219 31.9442 8.73123 31.8781 8.57217 31.8781C8.41318 31.8781 8.26215 31.9441 8.15924 32.0588L6.63184 33.7585V25.8148C6.63184 25.5316 6.38917 25.3021 6.08984 25.3021C5.79052 25.3021 5.54785 25.5316 5.54785 25.8148V35.1533C5.54785 35.3683 5.68956 35.5604 5.90289 35.6346C6.116 35.7086 6.35564 35.6491 6.50284 35.4854L8.57217 33.1827L10.6408 35.4854C10.7438 35.6001 10.8947 35.6662 11.0538 35.6662C11.2128 35.6662 11.3638 35.6001 11.4667 35.4855L13.536 33.1827L15.6046 35.4855C15.7076 35.6001 15.8586 35.6662 16.0176 35.6662C16.1766 35.6662 16.3276 35.6002 16.4305 35.4856L18.5 33.1825L20.5693 35.4853C20.6724 35.5999 20.8234 35.666 20.9823 35.666C21.1414 35.666 21.2924 35.5999 21.3953 35.4853L23.4641 33.1825L25.5333 35.4853C25.6364 35.5999 25.7874 35.666 25.9464 35.666C26.1054 35.666 26.2564 35.5999 26.3593 35.4852L28.428 33.1825L30.4973 35.4852C30.6024 35.6021 30.7545 35.6659 30.9105 35.6659C30.973 35.6659 31.0363 35.6556 31.0974 35.6344C31.3106 35.5602 31.4523 35.368 31.4523 35.1531V8.46515C31.4522 8.182 31.2096 7.95245 30.9102 7.95245Z"/>
<path d="M25.0701 2.87573H11.9301C11.6307 2.87573 11.3881 3.10528 11.3881 3.38843V5.59815C11.3881 5.88129 11.6307 6.11084 11.9301 6.11084H25.07C25.3694 6.11084 25.612 5.88129 25.612 5.59815V3.38843C25.6121 3.10528 25.3694 2.87573 25.0701 2.87573ZM24.5281 5.08545H12.472V3.90112H24.528V5.08545H24.5281Z"/>
<path d="M8.86401 13.8449H20.5439C20.8433 13.8449 21.0859 13.6153 21.0859 13.3322C21.0859 13.049 20.8433 12.8195 20.5439 12.8195H8.86401C8.56469 12.8195 8.32202 13.049 8.32202 13.3322C8.32202 13.6153 8.56462 13.8449 8.86401 13.8449Z"/>
<path d="M8.32202 10.57C8.32202 10.8532 8.56469 11.0827 8.86401 11.0827H20.5439C20.8433 11.0827 21.0859 10.8532 21.0859 10.57C21.0859 10.2869 20.8433 10.0573 20.5439 10.0573H8.86401C8.56462 10.0573 8.32202 10.2869 8.32202 10.57Z"/>
<path d="M8.86401 16.6071H20.5439C20.8433 16.6071 21.0859 16.3775 21.0859 16.0944C21.0859 15.8112 20.8433 15.5817 20.5439 15.5817H8.86401C8.56469 15.5817 8.32202 15.8112 8.32202 16.0944C8.32202 16.3775 8.56462 16.6071 8.86401 16.6071Z"/>
<path d="M8.86401 19.3692H20.5439C20.8433 19.3692 21.0859 19.1397 21.0859 18.8565C21.0859 18.5734 20.8433 18.3438 20.5439 18.3438H8.86401C8.56469 18.3438 8.32202 18.5734 8.32202 18.8565C8.32202 19.1397 8.56462 19.3692 8.86401 19.3692Z"/>
<path d="M28.136 12.8195H25.6539C25.3545 12.8195 25.1119 13.049 25.1119 13.3322C25.1119 13.6153 25.3545 13.8449 25.6539 13.8449H28.136C28.4354 13.8449 28.678 13.6153 28.678 13.3322C28.678 13.049 28.4354 12.8195 28.136 12.8195Z"/>
<path d="M28.136 10.0573H25.6539C25.3545 10.0573 25.1119 10.2869 25.1119 10.57C25.1119 10.8532 25.3545 11.0827 25.6539 11.0827H28.136C28.4354 11.0827 28.678 10.8532 28.678 10.57C28.678 10.2869 28.4354 10.0573 28.136 10.0573Z"/>
<path d="M28.136 15.5817H25.6539C25.3545 15.5817 25.1119 15.8112 25.1119 16.0944C25.1119 16.3775 25.3545 16.6071 25.6539 16.6071H28.136C28.4354 16.6071 28.678 16.3775 28.678 16.0944C28.678 15.8112 28.4354 15.5817 28.136 15.5817Z"/>
<path d="M28.136 18.3438H25.6539C25.3545 18.3438 25.1119 18.5734 25.1119 18.8565C25.1119 19.1397 25.3545 19.3692 25.6539 19.3692H28.136C28.4354 19.3692 28.678 19.1397 28.678 18.8565C28.678 18.5734 28.4354 18.3438 28.136 18.3438Z"/>
<path d="M28.136 21.106H25.6539C25.3545 21.106 25.1119 21.3356 25.1119 21.6187C25.1119 21.9019 25.3545 22.1314 25.6539 22.1314H28.136C28.4354 22.1314 28.678 21.9019 28.678 21.6187C28.678 21.3356 28.4354 21.106 28.136 21.106Z"/>
</g>

</symbol><symbol id="03" viewBox="0 0 37 38">
<g clip-path="url(#clip0)">
<path d="M23.9143 2.99911C23.7895 2.9116 23.6337 2.88055 23.4852 2.91386C23.3365 2.94717 23.2089 3.04145 23.1332 3.17356C23.1296 3.18005 23.125 3.18598 23.1211 3.19191C22.9472 3.44032 22.6037 3.50073 22.3552 3.32713C22.1099 3.15549 21.772 3.21478 21.6004 3.46008L20.8106 4.58838C20.6389 4.83369 20.6985 5.17159 20.9435 5.34322C21.0384 5.40956 21.1468 5.44146 21.254 5.44146C21.4248 5.44146 21.5931 5.36072 21.6984 5.21026L22.2305 4.45006C22.7301 4.58923 23.273 4.48196 23.6823 4.15959L24.4817 4.71937C24.727 4.891 25.0646 4.83143 25.2365 4.58641C25.4082 4.3411 25.3486 4.0032 25.1033 3.83157L23.9143 2.99911Z"/>
<path d="M29.9081 9.82624L29.3759 10.5862C29.2043 10.8315 29.2639 11.1694 29.5089 11.341C29.6038 11.4073 29.7122 11.4389 29.8194 11.4389C29.9902 11.4389 30.1585 11.3585 30.2637 11.2077L31.0539 10.0797C31.2255 9.83442 31.1659 9.49652 30.9209 9.32489C30.6725 9.151 30.6118 8.80746 30.786 8.55877C30.7902 8.55284 30.7942 8.54691 30.799 8.54155C30.8972 8.42496 30.9421 8.27281 30.9223 8.12179C30.9028 7.97076 30.8207 7.8347 30.6959 7.74747L29.5069 6.91501C29.2616 6.74338 28.9237 6.80294 28.7521 7.04825C28.5802 7.29327 28.64 7.63145 28.885 7.80308L29.6845 8.36258C29.5213 8.85771 29.6063 9.40422 29.9081 9.82624Z"/>
<path d="M27.0318 22.0027C27.2893 22.0027 27.5284 22.1057 27.7051 22.2932C27.9106 22.5105 28.2536 22.5204 28.4712 22.3149C28.6891 22.1094 28.6987 21.7664 28.4932 21.5488C28.1153 21.1485 27.5826 20.9187 27.0318 20.9187C25.9236 20.9187 25.0222 21.8203 25.0222 22.9286C25.0222 24.0366 25.9236 24.9382 27.0318 24.9382C27.5687 24.9382 28.0735 24.7293 28.4529 24.3496C28.6646 24.1379 28.6646 23.7946 28.4529 23.5832C28.2414 23.3715 27.8982 23.3715 27.6865 23.5832C27.5117 23.7579 27.2791 23.8542 27.0318 23.8542C26.5215 23.8542 26.1062 23.439 26.1062 22.9286C26.1062 22.4179 26.5215 22.0027 27.0318 22.0027Z"/>
<path d="M31.8576 19.1107V14.7696C31.8576 13.2958 30.6584 12.0967 29.1846 12.0967H26.3084C26.4766 10.6435 26.0021 9.36525 25.0011 8.66433C24.1531 8.07068 23.0544 7.96426 21.9072 8.36454C20.823 8.74309 19.8143 9.53858 19.068 10.6045C18.7374 11.0762 18.4743 11.5764 18.2835 12.0967H14.7549L22.3394 1.26501L32.8639 8.63413L31.2605 10.9243C31.0889 11.1696 31.1485 11.5075 31.3935 11.6792C31.6388 11.8508 31.9767 11.7912 32.1483 11.5459L33.8963 9.04965C34.1596 8.67449 34.0685 8.1548 33.6927 7.89115L22.7549 0.232684C22.5731 0.10509 22.3524 0.0559723 22.1336 0.0943634C21.9148 0.133037 21.7243 0.254138 21.5964 0.436214L19.0877 4.01929V1.85866C19.0877 1.39994 18.7145 1.02676 18.2558 1.02676H5.25591C4.7972 1.02676 4.42401 1.39994 4.42401 1.85866V4.82579C4.42401 5.12529 4.66678 5.36778 4.966 5.36778C5.26551 5.36778 5.508 5.12529 5.508 4.82579V2.11103H7.07836V12.0964H5.63587C5.59325 12.0964 5.55062 12.0975 5.508 12.0995V6.99375C5.508 6.69453 5.26551 6.45176 4.966 6.45176C4.66678 6.45176 4.42401 6.69453 4.42401 6.99375V12.3874C3.55767 12.8301 2.96289 13.7317 2.96289 14.7696V31.0873C2.96289 32.5611 4.16205 33.7603 5.63587 33.7603H9.68275C9.98226 33.7603 10.2247 33.5178 10.2247 33.2183C10.2247 32.919 9.98226 32.6763 9.68275 32.6763H5.63587C4.75965 32.6763 4.04688 31.9635 4.04688 31.0873V14.7696C4.04688 14.0752 4.49458 13.4835 5.11618 13.2679C5.13001 13.2639 5.14385 13.2594 5.15711 13.2543C5.30842 13.2063 5.46932 13.1804 5.63616 13.1804H29.1846C30.0608 13.1804 30.7739 13.8934 30.7739 14.7696V19.0356H26.8935C24.747 19.0356 23.0005 20.7818 23.0005 22.9286C23.0005 25.0751 24.747 26.8214 26.8935 26.8214H30.7739V31.0873C30.7739 31.9635 30.0608 32.6763 29.1846 32.6763H25.0432C24.7436 32.6763 24.5012 32.919 24.5012 33.2183C24.5012 33.5178 24.7436 33.7603 25.0432 33.7603H29.1846C30.6584 33.7603 31.8579 32.5611 31.8579 31.0873V26.7463C33.0841 26.4552 33.999 25.3509 33.999 24.0372V21.8201C33.9987 20.506 33.0838 19.4017 31.8576 19.1107ZM19.9558 11.2267C21.1919 9.46123 23.1764 8.71035 24.3795 9.55241C25.0725 10.0377 25.3777 10.9898 25.2153 12.0964H19.455C19.5925 11.7972 19.7596 11.5061 19.9558 11.2267ZM18.0037 5.56736L13.4318 12.0967H10.7611V2.11074H18.0037V5.56736ZM8.16235 2.11074H9.6771V12.0964H8.16235V2.11074ZM32.9147 24.0369C32.9147 24.9746 32.152 25.7374 31.2142 25.7374H26.8935C25.3446 25.7374 24.0845 24.4772 24.0845 22.9283C24.0845 21.3797 25.3446 20.1196 26.8935 20.1196H31.2142C32.152 20.1196 32.9147 20.8823 32.9147 21.8201V24.0369Z"/>
<path d="M17.4101 23.9855C13.7997 23.9855 10.8622 26.923 10.8622 30.5337C10.8622 34.1442 13.7997 37.0816 17.4101 37.0816C21.0209 37.0816 23.9584 34.1442 23.9584 30.5337C23.9584 26.923 21.0209 23.9855 17.4101 23.9855ZM17.4101 35.9977C14.3973 35.9977 11.9462 33.5466 11.9462 30.5337C11.9462 27.5206 14.3973 25.0695 17.4101 25.0695C20.4233 25.0695 22.8744 27.5206 22.8744 30.5337C22.8744 33.5466 20.4233 35.9977 17.4101 35.9977Z"/>
<path d="M17.8725 29.9917H16.948C16.6756 29.9917 16.454 29.7701 16.454 29.4977C16.454 29.2253 16.6756 29.0037 16.948 29.0037H18.7171C19.0163 29.0037 19.2591 28.7609 19.2591 28.4617C19.2591 28.1624 19.0163 27.9197 18.7171 27.9197H18.0517V27.4615C18.0517 27.1623 17.809 26.9195 17.5097 26.9195C17.2105 26.9195 16.9677 27.1623 16.9677 27.4615V27.9197H16.948C16.078 27.9197 15.37 28.6276 15.37 29.4977C15.37 30.3677 16.078 31.0756 16.948 31.0756H17.8725C18.1449 31.0756 18.3662 31.297 18.3662 31.5694C18.3662 31.8418 18.1449 32.0634 17.8725 32.0634H16.1034C15.8039 32.0634 15.5614 32.3061 15.5614 32.6054C15.5614 32.9046 15.8039 33.1474 16.1034 33.1474H16.9677V33.6055C16.9677 33.9047 17.2105 34.1475 17.5097 34.1475C17.8092 34.1475 18.0517 33.9047 18.0517 33.6055V33.1372C18.8376 33.0477 19.4505 32.379 19.4505 31.5694C19.4502 30.6994 18.7425 29.9917 17.8725 29.9917Z"/>
</g>

</symbol><symbol id="04" viewBox="0 0 40 40">
<g clip-path="url(#clip0)">
<path d="M39.8729 22.6384C39.6712 22.3841 39.3021 22.3417 39.0479 22.5431L37.8962 23.4563L28.5882 11.2353L33.9094 7.82007C34.1823 7.64491 34.2615 7.28179 34.0863 7.0089C33.9113 6.73601 33.5481 6.65679 33.2753 6.83194L27.4187 10.5909C27.1347 10.7733 27.0639 11.1718 27.2687 11.4407L28.3346 12.8401L27.5767 13.4203L24.5677 12.4261C24.5089 12.4069 24.4455 12.3965 24.3835 12.3965H17.4951C17.2257 12.3965 16.9909 12.5799 16.9256 12.8412L16.5379 14.3917L15.5595 13.9797C15.466 13.9404 15.3638 13.926 15.2635 13.9377L12.5417 14.2564L11.617 13.7196L12.4966 12.1961C12.6564 11.9191 12.5585 11.554 12.2817 11.3942L0.880705 4.81164C0.599691 4.64945 0.240708 4.7457 0.0787554 5.02648C-0.0833533 5.30726 0.0128181 5.66632 0.293598 5.82843L9.22864 10.9871L1.51726 24.3437L0.880705 23.9762C0.599691 23.8139 0.240708 23.9102 0.0787554 24.191C-0.0833533 24.4718 0.0128181 24.8309 0.293598 24.993L3.39601 26.7842C3.67327 26.9442 4.03827 26.8461 4.19796 26.5694L4.64686 25.7919L5.91334 26.4673C5.50022 27.2682 5.54092 28.2679 6.10428 29.0465C6.58592 29.712 7.34044 30.0658 8.10528 30.0658C8.36052 30.0658 8.61684 30.0259 8.86466 29.9454C8.86622 30.4697 9.03286 30.9736 9.34973 31.3944C9.8309 32.0336 10.5745 32.3722 11.326 32.3722C11.5771 32.3722 11.8291 32.3343 12.0725 32.2572C12.079 32.7472 12.2303 33.2399 12.5388 33.6661C12.9249 34.1997 13.4957 34.5511 14.1459 34.6554C14.2781 34.6766 14.4103 34.6871 14.5417 34.6871C14.7966 34.6871 15.0479 34.6473 15.2884 34.5701C15.2953 35.0728 15.4553 35.5604 15.7561 35.9761C16.1422 36.5096 16.713 36.861 17.3632 36.9653C17.4954 36.9865 17.6277 36.9971 17.759 36.997C18.2738 36.997 18.7741 36.836 19.1991 36.5283L20.5688 35.5372C20.8652 35.3228 21.1043 35.052 21.2769 34.7427L23.6865 36.056C24.0536 36.2562 24.4563 36.3579 24.8632 36.3579C25.097 36.3579 25.3324 36.3243 25.5629 36.2564C26.1947 36.0703 26.7163 35.6494 27.0315 35.0711C27.2772 34.6203 27.374 34.1159 27.3168 33.6162C27.4642 33.6433 27.6125 33.6568 27.7603 33.6568C28.6343 33.6567 29.4825 33.1915 29.9295 32.3715C30.181 31.91 30.2685 31.4028 30.2132 30.9165C30.361 30.9437 30.5099 30.9572 30.6581 30.9572C31.5322 30.9571 32.3804 30.4919 32.8273 29.6719C33.0728 29.2214 33.1696 28.7173 33.1127 28.218C33.2592 28.2451 33.4076 28.2591 33.5568 28.2591C33.7907 28.2591 34.026 28.2255 34.2566 28.1576C34.8884 27.9715 35.4099 27.5506 35.7252 26.9723C36.0404 26.394 36.1116 25.7276 35.9256 25.0957C35.8809 24.9438 35.8222 24.7986 35.7515 24.6608L36.7813 23.9298L37.3252 24.6441C37.5215 24.9017 37.9029 24.9498 38.1571 24.7484L39.7777 23.4631C40.0317 23.2616 40.0744 22.8924 39.8729 22.6384ZM3.47476 25.4739L2.53414 24.9308L10.2455 11.5742L11.1861 12.1173L3.47476 25.4739ZM8.85895 28.6473C8.28216 29.0649 7.47302 28.9352 7.05552 28.3582C6.6381 27.7812 6.76787 26.9721 7.34482 26.5546L11.4978 23.5497C11.7285 23.3828 11.9939 23.302 12.2566 23.302C12.6432 23.302 13.024 23.477 13.2793 23.8094C13.717 24.3794 13.5937 25.2212 13.0124 25.6423L8.85895 28.6473ZM12.0762 30.9573C11.5101 31.3669 10.7077 31.2462 10.2877 30.6883C9.85254 30.1104 10.0201 29.2565 10.5961 28.8397L13.7003 26.5937C13.8133 26.5184 13.9178 26.4391 14.0443 26.3855C14.2244 26.309 14.4216 26.2743 14.617 26.2851C14.9909 26.3059 15.341 26.494 15.5688 26.7905C16.0064 27.3605 15.8832 28.2024 15.3018 28.6234L12.0762 30.9573ZM15.2935 33.2672C15.014 33.4695 14.6725 33.5508 14.3318 33.4961C13.9912 33.4415 13.6922 33.2574 13.4899 32.9779C13.0727 32.4011 13.2021 31.5926 13.7784 31.175C13.7784 31.175 15.9902 29.5745 15.9905 29.5744L16.0767 29.5119C16.647 29.0994 17.4295 29.2135 17.8582 29.7716C18.2959 30.3418 18.1725 31.1839 17.5909 31.6047L15.2935 33.2672ZM20.4013 33.7259C20.3506 34.0743 20.1655 34.3796 19.8804 34.586L18.5107 35.5771C17.9401 35.99 17.1195 35.8578 16.7072 35.2878C16.293 34.7154 16.428 33.8989 16.9964 33.4843L18.2792 32.5562L18.3662 32.4933C18.9282 32.0867 19.7255 32.2033 20.1476 32.7529C20.362 33.0321 20.4521 33.3776 20.4013 33.7259ZM34.6942 26.4102C34.3575 27.0279 33.5606 27.2634 32.9419 26.9262L26.1543 23.2265C25.8695 23.0714 25.513 23.1763 25.3579 23.461C25.2027 23.7457 25.3076 24.1023 25.5923 24.2575L31.2803 27.3577C31.9056 27.6986 32.137 28.4846 31.7963 29.1099C31.4554 29.7351 30.6694 29.9668 30.044 29.6258L24.2728 26.4801C23.9881 26.325 23.6315 26.43 23.4764 26.7147C23.3212 26.9994 23.4262 27.3559 23.7109 27.5112L28.3833 30.0579C29.0079 30.3991 29.2389 31.1846 28.8984 31.8096C28.5618 32.4272 27.765 32.6629 27.1461 32.3255L22.2544 29.6592C21.9695 29.5041 21.6131 29.609 21.458 29.8937C21.3028 30.1784 21.4077 30.535 21.6924 30.6902L25.4844 32.7571C26.1022 33.0937 26.3376 33.8906 26.0004 34.5093C25.6638 35.1271 24.8669 35.3624 24.2483 35.0252L21.5884 33.5754C21.5978 33.0215 21.4223 32.485 21.0788 32.0379C20.6176 31.4372 19.9419 31.106 19.245 31.0722C19.256 31.0201 19.2661 30.9675 19.2738 30.9143C19.3707 30.2494 19.1988 29.5897 18.7895 29.0567C18.3281 28.4562 17.6524 28.1249 16.9556 28.0911C16.9666 28.039 16.9767 27.9864 16.9844 27.9331C17.0813 27.2681 16.9093 26.6085 16.5 26.0755C16.0387 25.4749 15.363 25.1437 14.6661 25.1099C14.6771 25.0578 14.6872 25.0052 14.6949 24.952C14.7918 24.287 14.6199 23.6273 14.2106 23.0945C13.3921 22.0287 11.898 21.811 10.8096 22.5988L6.71248 25.5628L5.2342 24.7744L11.0298 14.7362L12.121 15.3698C12.2308 15.4336 12.3584 15.4598 12.4841 15.4452L15.2463 15.1217L16.2496 15.5442L15.673 17.8509C15.6614 17.8974 15.6555 17.9453 15.6555 17.9933V23.0031C15.6555 24.708 17.0426 26.095 18.7474 26.095C20.4523 26.095 21.8394 24.7079 21.8394 23.0031V18.1617L21.9461 17.991L34.1781 24.658C34.7957 24.9947 35.0314 25.7913 34.6942 26.4102ZM34.9742 23.7724C34.8993 23.7202 34.8215 23.6713 34.7402 23.627L22.5697 16.9933L23.0212 16.2709C23.193 15.9959 23.1094 15.6337 22.8344 15.4619C22.5598 15.2902 22.1973 15.3736 22.0255 15.6486L20.7545 17.6821C20.6963 17.7754 20.6653 17.8832 20.6653 17.9933V23.0031C20.6653 24.0605 19.8051 24.9209 18.7475 24.9209C17.6899 24.9209 16.8297 24.0605 16.8297 23.0031V18.0656L17.9534 13.5707H24.289L27.5029 14.6325C27.6856 14.6929 27.8912 14.6581 28.0439 14.5412L29.0459 13.7742L36.0691 22.9953L34.9742 23.7724Z"/>
<path d="M39.9069 3.2731C39.7318 3.00021 39.3687 2.921 39.0958 3.09615L35.8066 5.20723C35.5337 5.38239 35.4544 5.74551 35.6296 6.0184C35.7417 6.19317 35.9308 6.28848 36.1241 6.28848C36.2327 6.28848 36.3425 6.2584 36.4407 6.19543L39.7299 4.08435C40.0027 3.90904 40.0819 3.54591 39.9069 3.2731Z"/>
</g>

</symbol><symbol id="05" viewBox="0 0 38 37">
<g clip-path="url(#clip0)">
<path d="M18.0169 23.9503C17.8019 23.7353 17.4534 23.7353 17.2385 23.9503L16.1253 25.0634L14.0029 22.9411L15.1165 21.8275C15.3315 21.6125 15.3315 21.264 15.1165 21.0491C14.9015 20.8342 14.553 20.8341 14.3381 21.0491L13.1797 22.2076C13.0487 22.1472 12.9057 22.1143 12.7572 22.1143C12.4872 22.1143 12.2331 22.2196 12.0421 22.4106L5.58625 28.8665C5.37126 29.0814 5.37126 29.4299 5.58625 29.6448C5.80124 29.8598 6.14978 29.8598 6.36463 29.6448L12.7571 23.2523L15.8138 26.309L6.92765 35.1952C6.51342 35.6094 5.96145 35.8326 5.37357 35.8268C4.78597 35.8199 4.23935 35.5822 3.83444 35.1578C3.03171 34.3158 3.06409 32.9453 3.90671 32.1027L4.96331 31.0461C5.1783 30.8311 5.1783 30.4826 4.96331 30.2677C4.74832 30.0527 4.39978 30.0528 4.18493 30.2677L3.12833 31.3243C1.86656 32.5861 1.82588 34.6467 3.03785 35.9177C3.64922 36.5585 4.47407 36.9172 5.36063 36.9276C5.374 36.9278 5.38715 36.9278 5.40038 36.9278C6.27234 36.9278 7.08989 36.5898 7.70603 35.9736L16.6554 27.0242C16.9624 26.7172 17.0292 26.2607 16.8582 25.8873L18.0168 24.7287C18.2318 24.5137 18.2318 24.1652 18.0169 23.9503Z"/>
<path d="M35.2503 14.6187C35.1002 14.3542 34.7643 14.2614 34.4999 14.4114C34.2355 14.5613 34.1426 14.8972 34.2926 15.1616C35.2878 16.9169 35.4373 18.9365 34.7424 20.7402C33.4721 18.4644 31.4301 16.2865 29.8176 15.1476L32.2222 12.7452L33.1907 13.7137C33.2983 13.8213 33.4391 13.875 33.58 13.875C33.7209 13.875 33.8617 13.8213 33.9692 13.7139C34.1843 13.4989 34.1843 13.1504 33.9693 12.9354L33.0011 11.9672L33.6476 11.3213C33.751 11.2181 33.8091 11.078 33.8092 10.9319C33.8093 10.7859 33.7513 10.6457 33.648 10.5424L28.5861 5.48051C28.3728 5.26718 28.0273 5.2653 27.8118 5.47639C27.755 5.53203 27.6907 5.578 27.6196 5.61348C27.1721 5.83866 26.5022 5.65706 26.0271 5.18198C25.5548 4.70972 25.374 4.0633 25.5889 3.60679C25.6248 3.5294 25.6733 3.45915 25.7331 3.39823C25.9445 3.18266 25.9427 2.83709 25.7293 2.62368L23.2667 0.161213C23.0517 -0.0537785 22.7032 -0.0537785 22.4883 0.161213L17.1197 5.52979C16.9047 5.74479 16.9047 6.09325 17.1197 6.30817L19.5822 8.77064C19.7947 8.98325 20.1386 8.98592 20.3545 8.77664C20.4128 8.72013 20.4793 8.67359 20.5541 8.63746C21.0007 8.41957 21.6664 8.60262 22.1365 9.07264C22.6102 9.54628 22.792 10.215 22.569 10.6629C22.5338 10.7336 22.488 10.7984 22.4329 10.8552C22.2237 11.0711 22.2264 11.4149 22.439 11.6275L23.0989 12.2874L18.3745 17.0125C18.1595 17.2274 18.1596 17.576 18.3746 17.7909C18.482 17.8984 18.6229 17.9521 18.7638 17.9521C18.9047 17.9521 19.0456 17.8984 19.1531 17.7908L23.8774 13.0659L26.0001 15.1885L21.2751 19.9136C21.0601 20.1286 21.0601 20.477 21.2751 20.692C21.3825 20.7995 21.5234 20.8532 21.6643 20.8532C21.8051 20.8532 21.946 20.7995 22.0535 20.692L26.7786 15.9669L27.4984 16.6868C27.6016 16.7899 27.7417 16.848 27.8876 16.848C28.0336 16.848 28.1737 16.79 28.2769 16.6868L29.0263 15.938C30.7648 17.1012 33.1582 19.7505 34.2483 22.2065C34.332 22.3951 34.5142 22.5211 34.7202 22.5328C34.7307 22.5334 34.7411 22.5337 34.7515 22.5337C34.9458 22.5337 35.1268 22.4309 35.226 22.262C36.6144 19.8982 36.6235 17.0409 35.2503 14.6187ZM19.9714 7.60311L18.2874 5.91902L22.8775 1.32889L24.5615 3.01291L19.9714 7.60311ZM22.9149 8.29419C22.53 7.90945 22.0729 7.65001 21.605 7.52622L24.4816 4.64959C24.6052 5.11874 24.8646 5.57655 25.2486 5.9605C25.6689 6.3808 26.1864 6.65245 26.7088 6.75781L23.7117 9.75484C23.6064 9.23199 23.3349 8.7142 22.9149 8.29419ZM27.8875 15.5192L23.6958 11.3276L28.286 6.73743L32.4799 10.9313L27.8875 15.5192Z"/>
<path d="M33.4466 31.2894L32.563 30.4061C32.348 30.1911 31.9995 30.1911 31.7846 30.4061C31.5696 30.6211 31.5696 30.9696 31.7846 31.1845L32.6682 32.0681C33.0918 32.4917 33.3251 33.0553 33.3251 33.6552C33.3251 34.2549 33.0918 34.8185 32.6682 35.2421C32.2443 35.666 31.6806 35.8994 31.0812 35.8994C30.4817 35.8994 29.918 35.666 29.4941 35.2421L24.2992 30.0473C24.4399 29.7819 24.5145 29.4845 24.5145 29.1756C24.5145 28.6774 24.3204 28.209 23.9681 27.8567C23.6158 27.5043 23.1474 27.3103 22.6491 27.3103C22.3403 27.3103 22.0428 27.3848 21.7775 27.5255L21.383 27.131L24.557 23.957L24.952 24.352C24.5805 25.0564 24.6908 25.9502 25.2826 26.5421C25.635 26.8944 26.1033 27.0885 26.6016 27.0885C26.9105 27.0885 27.2079 27.0139 27.4733 26.8733L30.3898 29.7898C30.6048 30.0048 30.9533 30.0048 31.1682 29.7898C31.3832 29.5748 31.3832 29.2263 31.1682 29.0114L27.9205 25.7638C27.8173 25.6605 27.6773 25.6025 27.5313 25.6025C27.3853 25.6025 27.2453 25.6605 27.1421 25.7638C26.9976 25.9082 26.8058 25.9877 26.6015 25.9877C26.3973 25.9877 26.2054 25.9081 26.061 25.7638C25.763 25.4657 25.763 24.9808 26.061 24.6827C26.276 24.4677 26.2759 24.1192 26.061 23.9044L24.9462 22.7896C24.843 22.6863 24.703 22.6284 24.557 22.6284C24.411 22.6284 24.2709 22.6863 24.1677 22.7896L24.1031 22.8542L22.9717 21.7227C22.8685 21.6194 22.7284 21.5615 22.5824 21.5615C22.4365 21.5615 22.2964 21.6194 22.1932 21.7227L21.942 21.974L8.20545 8.2372L7.90265 6.09025C7.87736 5.91081 7.76542 5.75537 7.60318 5.6745L3.84895 3.80252C3.63714 3.69701 3.38154 3.73842 3.2141 3.90593L1.33185 5.7881C1.16441 5.95555 1.12286 6.21115 1.22844 6.42296L3.10049 10.1773C3.18136 10.3394 3.3368 10.4514 3.51624 10.4767L5.6632 10.7795L7.22118 12.3375C7.43617 12.5525 7.78472 12.5525 7.99956 12.3375C8.21455 12.1225 8.21455 11.774 7.99956 11.5591L6.31157 9.87114C6.22709 9.78666 6.11746 9.73196 5.99923 9.71533L3.95663 9.42721L2.39062 6.28645L3.71252 4.96456L6.85306 6.53057L7.14118 8.57324C7.15788 8.69154 7.21251 8.8011 7.29699 8.88558L21.1636 22.7521L20.1782 23.7376L9.10025 12.6596C8.88526 12.4446 8.53672 12.4446 8.32187 12.6596C8.10688 12.8746 8.10688 13.2231 8.32187 13.438L19.3997 24.5158L19.1484 24.7671C19.0452 24.8703 18.9872 25.0103 18.9872 25.1563C18.9872 25.3023 19.0452 25.4423 19.1484 25.5455L20.28 26.677L20.2154 26.7416C20.0004 26.9566 20.0004 27.3051 20.2154 27.52L21.3302 28.6348C21.5452 28.8497 21.8937 28.8497 22.1086 28.6348C22.2531 28.4903 22.4449 28.4107 22.6491 28.4107C22.8534 28.4107 23.0452 28.4903 23.1897 28.6348C23.3342 28.7792 23.4137 28.9711 23.4137 29.1753C23.4137 29.3795 23.3342 29.5714 23.1897 29.7159C23.0864 29.819 23.0285 29.9591 23.0285 30.1051C23.0285 30.2511 23.0864 30.3911 23.1897 30.4943L28.7158 36.0203C29.3476 36.6522 30.1877 37.0001 31.0812 37.0001C31.9748 37.0001 32.8148 36.6522 33.4467 36.0203C34.0782 35.3888 34.426 34.5488 34.426 33.6549C34.426 32.7611 34.0781 31.9209 33.4466 31.2894ZM21.0583 25.8987L20.316 25.1564L22.3312 23.1413L22.5824 22.89L23.3248 23.6323L21.0583 25.8987Z"/>
</g>

</symbol><symbol id="06" viewBox="0 0 37 38">
<g clip-path="url(#clip0)">
<path d="M1.23336 32.3459C0.49684 32.6063 0.00326176 33.3013 2.3403e-05 34.0825V35.9325C2.3403e-05 36.6136 0.552205 37.1658 1.23336 37.1658H35.7667C36.4478 37.1658 37 36.6136 37 35.9325V34.0825C36.9967 33.3013 36.5032 32.6063 35.7667 32.3459V9.92083C36.0244 9.83323 36.2583 9.68693 36.4499 9.49348C36.8039 9.14942 37.0025 8.67607 37 8.18245C37 7.16072 36.1717 6.33244 35.15 6.33244H28.3667V3.86578C28.3667 2.84405 27.5384 2.01577 26.5167 2.01577H18.4821C18.3909 1.91032 18.2971 1.80611 18.1948 1.70744C16.465 -0.0315603 13.9428 -0.337427 12.5738 1.02479C12.2956 1.30681 12.0802 1.64454 11.9418 2.01577H10.4833C9.46162 2.01577 8.63335 2.84405 8.63335 3.86578V6.33244H1.85002C1.36157 6.32848 0.892436 6.52298 0.55009 6.87141C0.196124 7.21547 -0.00248109 7.68883 2.3403e-05 8.18245C0.00326176 8.96363 0.49684 9.65859 1.23336 9.91898V32.3459ZM1.23336 34.0825C1.23336 33.7419 1.50945 33.4658 1.85002 33.4658H11.7167V35.9325H1.23336V34.0825ZM12.95 35.9325V33.4658H24.05V35.9325H12.95ZM22.2 32.2325H14.8V21.7491C14.8 21.068 15.3522 20.5158 16.0333 20.5158H20.9667C21.6478 20.5158 22.2 21.068 22.2 21.7491V32.2325ZM25.2833 35.9325V33.4658H35.15C35.4906 33.4658 35.7667 33.7419 35.7667 34.0825V35.9325H25.2833ZM34.5333 32.2325H23.4333V21.7491C23.4333 20.3868 22.329 19.2825 20.9667 19.2825H16.0333C14.671 19.2825 13.5667 20.3868 13.5667 21.7491V32.2325H2.46669V10.0324H8.56058L6.8481 13.4568C6.8444 13.4642 6.84378 13.4722 6.84008 13.4796C6.83638 13.487 6.83145 13.5067 6.8259 13.5203C6.80394 13.5797 6.79125 13.6421 6.78828 13.7053C6.78828 13.7139 6.78335 13.7207 6.78335 13.7294V15.5794C6.77879 16.608 7.41566 17.5305 8.3791 17.8908C9.34255 18.2511 10.4285 17.973 11.1 17.1938C11.5624 17.7347 12.2384 18.0461 12.95 18.0461C13.6616 18.0461 14.3376 17.7347 14.8 17.1938C15.2624 17.7347 15.9384 18.0461 16.65 18.0461C17.3616 18.0461 18.0376 17.7347 18.5 17.1938C18.9624 17.7347 19.6384 18.0461 20.35 18.0461C21.0616 18.0461 21.7376 17.7347 22.2 17.1938C22.6624 17.7347 23.3384 18.0461 24.05 18.0461C24.7616 18.0461 25.4376 17.7347 25.9 17.1938C26.5712 17.9725 27.6563 18.2509 28.6195 17.8913C29.5826 17.5318 30.2199 16.6105 30.2167 15.5824V13.7324C30.2167 13.7238 30.2123 13.717 30.2117 13.7084C30.2088 13.6452 30.1961 13.5828 30.1741 13.5234C30.1686 13.5098 30.1655 13.4956 30.1599 13.4827C30.1544 13.4697 30.1556 13.4673 30.1519 13.4599L28.4394 10.0324H34.5333V32.2325ZM27.3689 10.6491L28.6022 13.1158H8.39778L9.63111 10.6491H27.3689ZM25.2833 15.5824C25.2833 16.2636 24.7312 16.8158 24.05 16.8158C23.3689 16.8158 22.8167 16.2636 22.8167 15.5824V14.3491H25.2833V15.5824ZM21.5833 15.5824C21.5833 16.2636 21.0312 16.8158 20.35 16.8158C19.6689 16.8158 19.1167 16.2636 19.1167 15.5824V14.3491H21.5833V15.5824ZM17.8833 15.5824C17.8833 16.2636 17.3312 16.8158 16.65 16.8158C15.9689 16.8158 15.4167 16.2636 15.4167 15.5824V14.3491H17.8833V15.5824ZM14.1833 15.5824C14.1833 16.2636 13.6312 16.8158 12.95 16.8158C12.2689 16.8158 11.7167 16.2636 11.7167 15.5824V14.3491H14.1833V15.5824ZM10.4833 15.5824C10.4833 16.2636 9.93117 16.8158 9.25001 16.8158C8.56886 16.8158 8.01668 16.2636 8.01668 15.5824V14.3491H10.4833V15.5824ZM26.5167 14.3491H28.9833V15.5824C28.9833 16.2636 28.4311 16.8158 27.75 16.8158C27.0688 16.8158 26.5167 16.2636 26.5167 15.5824V14.3491ZM35.15 7.56578C35.4906 7.56578 35.7667 7.84187 35.7667 8.18245C35.7671 8.34876 35.6988 8.50785 35.578 8.62213C35.465 8.73649 35.3107 8.80033 35.15 8.79911H28.3667V7.56578H35.15ZM12.9963 2.76502C13.2632 2.87389 13.544 2.94508 13.8306 2.97654C14.5291 3.00318 15.0889 3.5638 15.1145 4.26229C15.1584 4.86562 15.4216 5.432 15.8545 5.85453C16.276 6.28717 16.8413 6.55042 17.4437 6.59453C17.554 6.60994 17.6502 6.62721 17.7421 6.64818C16.8073 7.26484 15.2693 6.91951 14.1285 5.77374C13.2819 5.01625 12.8591 3.89272 12.9963 2.76502ZM17.3228 2.58002C18.168 3.33711 18.5902 4.45921 18.4538 5.58566C18.1868 5.4768 17.906 5.40561 17.6194 5.37414C16.92 5.34743 16.3599 4.78539 16.3355 4.08593C16.2916 3.4826 16.0284 2.91622 15.5955 2.49369C15.1741 2.06105 14.6087 1.7978 14.0064 1.75369C13.891 1.73766 13.7911 1.71916 13.698 1.69696C14.02 1.48905 14.3965 1.38171 14.7797 1.38862C15.7493 1.44102 16.6608 1.86718 17.3228 2.57756V2.58002ZM9.86668 3.86578C9.86668 3.5252 10.1428 3.24911 10.4833 3.24911H11.7265C11.7773 4.53519 12.3256 5.75126 13.2559 6.64078C14.1525 7.58038 15.3821 8.13044 16.6802 8.17258C17.4966 8.19356 18.2874 7.88688 18.8762 7.32096C19.8684 6.32504 19.9701 4.71616 19.2832 3.24664H26.5167C26.8572 3.24664 27.1333 3.52273 27.1333 3.86331V9.41331H9.86668V3.86578ZM1.42206 7.74276C1.53496 7.6284 1.68932 7.56457 1.85002 7.56578H8.63335V8.79911H1.85002C1.50945 8.79911 1.23336 8.52302 1.23336 8.18245C1.23294 8.01614 1.30122 7.85704 1.42206 7.74276Z"/>
<path d="M9.86668 19.2825H6.16668C4.80438 19.2825 3.70001 20.3868 3.70001 21.7491V27.2991C3.70001 27.9803 4.25219 28.5325 4.93335 28.5325H11.1C11.7812 28.5325 12.3333 27.9803 12.3333 27.2991V21.7491C12.3333 20.3868 11.229 19.2825 9.86668 19.2825ZM6.16668 20.5158H9.86668C10.5478 20.5158 11.1 21.068 11.1 21.7491V24.8325H4.93335V21.7491C4.93335 21.068 5.48553 20.5158 6.16668 20.5158ZM4.93335 27.2991V26.0658H11.1V27.2991H4.93335Z"/>
<path d="M30.8333 19.2825H27.1333C25.771 19.2825 24.6666 20.3868 24.6666 21.7491V27.2991C24.6666 27.9803 25.2188 28.5325 25.9 28.5325H32.0666C32.7478 28.5325 33.3 27.9803 33.3 27.2991V21.7491C33.3 20.3868 32.1956 19.2825 30.8333 19.2825ZM27.1333 20.5158H30.8333C31.5144 20.5158 32.0666 21.068 32.0666 21.7491V24.8325H25.9V21.7491C25.9 21.068 26.4521 20.5158 27.1333 20.5158ZM25.9 27.2991V26.0658H32.0666V27.2991H25.9Z"/>
<path d="M20.35 24.8324C20.0094 24.8324 19.7333 25.1085 19.7333 25.4491V27.2991C19.7333 27.6397 20.0094 27.9158 20.35 27.9158C20.6906 27.9158 20.9667 27.6397 20.9667 27.2991V25.4491C20.9667 25.1085 20.6906 24.8324 20.35 24.8324Z"/>
<path d="M21.5833 5.71579H25.2834C25.6239 5.71579 25.9 5.4397 25.9 5.09912C25.9 4.75854 25.6239 4.48245 25.2834 4.48245H21.5833C21.2428 4.48245 20.9667 4.75854 20.9667 5.09912C20.9667 5.4397 21.2428 5.71579 21.5833 5.71579Z"/>
<path d="M24.05 6.9491H22.8167C22.4761 6.9491 22.2 7.22519 22.2 7.56576C22.2 7.90634 22.4761 8.18243 22.8167 8.18243H24.05C24.3906 8.18243 24.6667 7.90634 24.6667 7.56576C24.6667 7.22519 24.3906 6.9491 24.05 6.9491Z"/>
</g>

</symbol><symbol id="07" viewBox="0 0 59 59">
<g clip-path="url(#clip0)">
<path d="M18.6073 12.5052C18.1058 12.5052 17.6991 12.9118 17.6991 13.4134C17.6991 14.5151 16.8028 15.4114 15.7011 15.4114C14.5995 15.4114 13.7032 14.5151 13.7032 13.4134C13.7032 12.3118 14.5995 11.4155 15.7011 11.4155C16.2026 11.4155 16.6093 11.0089 16.6093 10.5073C16.6093 10.0057 16.2028 9.59912 15.7011 9.59912C13.598 9.59912 11.887 11.3102 11.887 13.4133C11.887 15.5164 13.5981 17.2275 15.7011 17.2275C17.8042 17.2275 19.5153 15.5164 19.5153 13.4133C19.5154 12.9118 19.1088 12.5052 18.6073 12.5052Z"/>
<path d="M18.6073 23.1605C18.1058 23.1605 17.6991 23.5671 17.6991 24.0687C17.6991 25.1703 16.8028 26.0666 15.7011 26.0666C14.5995 26.0666 13.7032 25.1703 13.7032 24.0687C13.7032 22.967 14.5995 22.0707 15.7011 22.0707C16.2026 22.0707 16.6093 21.6642 16.6093 21.1626C16.6093 20.661 16.2028 20.2544 15.7011 20.2544C13.598 20.2544 11.887 21.9655 11.887 24.0686C11.887 26.1716 13.5981 27.8828 15.7011 27.8828C17.8042 27.8828 19.5153 26.1716 19.5153 24.0686C19.5154 23.5672 19.1088 23.1605 18.6073 23.1605Z"/>
<path d="M29.2626 25.0981H22.4818C21.9803 25.0981 21.5736 25.5047 21.5736 26.0063C21.5736 26.5079 21.9802 26.9145 22.4818 26.9145H29.2626C29.7641 26.9145 30.1707 26.5079 30.1707 26.0063C30.1707 25.5047 29.7642 25.0981 29.2626 25.0981Z"/>
<path d="M29.2626 21.2231H22.4818C21.9803 21.2231 21.5736 21.6297 21.5736 22.1313C21.5736 22.6329 21.9802 23.0395 22.4818 23.0395H29.2626C29.7641 23.0395 30.1707 22.6329 30.1707 22.1313C30.1707 21.6297 29.7642 21.2231 29.2626 21.2231Z"/>
<path d="M27.3252 35.7534H22.4818C21.9803 35.7534 21.5736 36.16 21.5736 36.6616C21.5736 37.1632 21.9802 37.5698 22.4818 37.5698H27.3252C27.8267 37.5698 28.2334 37.1632 28.2334 36.6616C28.2334 36.16 27.8267 35.7534 27.3252 35.7534Z"/>
<path d="M29.2626 31.8784H22.4818C21.9803 31.8784 21.5736 32.285 21.5736 32.7866C21.5736 33.2882 21.9802 33.6948 22.4818 33.6948H29.2626C29.7641 33.6948 30.1707 33.2882 30.1707 32.7866C30.1707 32.285 29.7642 31.8784 29.2626 31.8784Z"/>
<path d="M37.9808 14.4424H22.4818C21.9803 14.4424 21.5736 14.8489 21.5736 15.3506C21.5736 15.8522 21.9802 16.2587 22.4818 16.2587H37.9807C38.4822 16.2587 38.8889 15.8522 38.8889 15.3506C38.8889 14.8489 38.4823 14.4424 37.9808 14.4424Z"/>
<path d="M34.106 10.5674H22.4818C21.9803 10.5674 21.5736 10.9739 21.5736 11.4756C21.5736 11.9772 21.9802 12.3837 22.4818 12.3837H34.106C34.6075 12.3837 35.0142 11.9772 35.0142 11.4756C35.0142 10.9739 34.6076 10.5674 34.106 10.5674Z"/>
<path d="M18.6073 33.8163C18.1058 33.8163 17.6991 34.2228 17.6991 34.7245C17.6991 35.8261 16.8028 36.7224 15.7011 36.7224C14.5995 36.7224 13.7032 35.8261 13.7032 34.7245C13.7032 33.6228 14.5995 32.7265 15.7011 32.7265C16.2026 32.7265 16.6093 32.3199 16.6093 31.8183C16.6093 31.3167 16.2028 30.9102 15.7011 30.9102C13.598 30.9102 11.887 32.6213 11.887 34.7243C11.887 36.8274 13.5981 38.5385 15.7011 38.5385C17.8042 38.5385 19.5153 36.8274 19.5153 34.7243C19.5154 34.2228 19.1088 33.8163 18.6073 33.8163Z"/>
<path d="M41.8556 0.880859H8.92034C7.3514 0.880859 6.07483 2.15731 6.07483 3.72637V44.4111C6.07483 45.9802 7.35128 47.2566 8.92034 47.2566H25.388C25.8895 47.2566 26.2962 46.85 26.2962 46.3484C26.2962 45.8469 25.8896 45.4403 25.388 45.4403H8.92034C8.3528 45.4403 7.89107 44.9785 7.89107 44.411V3.72637C7.89107 3.15883 8.3528 2.6971 8.92034 2.6971H41.8556C42.4232 2.6971 42.8849 3.15883 42.8849 3.72637V33.7558C42.8849 34.2573 43.2915 34.6639 43.7931 34.6639C44.2946 34.6639 44.7012 34.2574 44.7012 33.7558V3.72637C44.7011 2.15731 43.4247 0.880859 41.8556 0.880859Z"/>
<path d="M50.4296 37.7079C49.5856 37.6237 48.7419 37.8629 48.0743 38.3699C47.5424 37.4774 46.6355 36.8443 45.5862 36.7392C44.7419 36.6551 43.8984 36.8944 43.2308 37.4012C42.699 36.5088 41.792 35.8756 40.7427 35.7705C40.0981 35.7062 39.4545 35.8303 38.8889 36.1182V24.5531C38.8889 23.6141 38.4894 22.714 37.7926 22.0835C37.0965 21.4537 36.1584 21.1463 35.2188 21.2403C33.5423 21.4082 32.2292 22.924 32.2292 24.6913V36.2856L29.5596 38.9552C28.141 40.3738 27.5683 42.3866 28.0279 44.3396L30.0546 52.9531C30.8758 56.4434 33.9535 58.881 37.5391 58.881H45.7301C49.9698 58.881 53.4191 55.4318 53.4191 51.1921V41.1591C53.4192 39.3916 52.1061 37.8757 50.4296 37.7079ZM51.6029 51.1918C51.6029 54.43 48.9684 57.0645 45.7302 57.0645H37.5392C34.8006 57.0645 32.4498 55.2027 31.8226 52.5368L29.7959 43.9233C29.4814 42.5871 29.8733 41.2098 30.8438 40.2392L32.2292 38.8539V41.9893C32.2292 42.4908 32.6357 42.8975 33.1373 42.8975C33.6389 42.8975 34.0455 42.4909 34.0455 41.9893V24.6912C34.0455 23.8455 34.6404 23.1235 35.3999 23.0476C35.8362 23.0037 36.2534 23.1399 36.5742 23.4303C36.891 23.7171 37.0727 24.1263 37.0727 24.5532V40.5365C37.0727 41.038 37.4793 41.4447 37.9809 41.4447C38.4825 41.4447 38.8891 41.0381 38.8891 40.5365V39.0834C38.8891 38.6566 39.0707 38.2473 39.3876 37.9606C39.7087 37.6701 40.1257 37.5339 40.5619 37.5778C41.3213 37.6538 41.9163 38.3759 41.9163 39.2215V41.5049C41.9163 42.0064 42.3229 42.4131 42.8245 42.4131C43.326 42.4131 43.7326 42.0065 43.7326 41.5049V40.0519C43.7326 39.625 43.9142 39.2157 44.2312 38.929C44.5522 38.6386 44.9693 38.5024 45.4055 38.5463C46.1649 38.6223 46.7599 39.3443 46.7599 40.19V42.4735C46.7599 42.975 47.1664 43.3817 47.668 43.3817C48.1695 43.3817 48.5762 42.9751 48.5762 42.4735V41.0204C48.5762 40.5936 48.7578 40.1843 49.0748 39.8976C49.3958 39.6072 49.8126 39.4709 50.249 39.5149C51.0085 39.5908 51.6034 40.3129 51.6034 41.1585V51.1918H51.6029Z"/>
</g>

</symbol><symbol id="08" viewBox="0 0 59 58">
<g clip-path="url(#clip0)">
<path d="M58.389 9.94634C58.389 9.93999 58.3882 9.93365 58.388 9.92719C58.3873 9.90193 58.3858 9.87701 58.3829 9.85231C58.3817 9.84325 58.38 9.83419 58.3787 9.82513C58.3753 9.80236 58.3711 9.77993 58.3659 9.75795C58.3638 9.74923 58.3616 9.74062 58.3592 9.7319C58.3526 9.70799 58.3451 9.68455 58.3365 9.66144C58.3349 9.65702 58.3339 9.65249 58.3322 9.64818L56.0275 3.74828C55.7952 3.15378 55.2325 2.76953 54.5942 2.76953H50.3978C49.9404 2.76953 49.5696 3.1403 49.5696 3.59773C49.5696 4.05516 49.9404 4.42593 50.3978 4.42593H54.514L56.3481 9.12131H39.0077L37.9212 4.42593H44.3254C44.7828 4.42593 45.1536 4.05516 45.1536 3.59773C45.1536 3.1403 44.7828 2.76953 44.3254 2.76953H36.8795H28.5344H10.8197C10.1812 2.76953 9.61867 3.15378 9.38633 3.74851L7.08162 9.64818C7.07993 9.6526 7.07902 9.65713 7.07732 9.66144C7.06871 9.68443 7.06123 9.70788 7.05466 9.7319C7.05228 9.74062 7.05002 9.74923 7.04798 9.75795C7.04277 9.78004 7.03858 9.80247 7.03518 9.82513C7.03382 9.83419 7.03212 9.84325 7.03099 9.85231C7.02816 9.87701 7.02657 9.90193 7.02589 9.92719C7.02578 9.93354 7.02498 9.93988 7.02487 9.94634C7.02487 9.94736 7.02476 9.94838 7.02476 9.9494V22.1169C7.02476 22.5743 7.39553 22.9451 7.85295 22.9451C8.31038 22.9451 8.68115 22.5743 8.68115 22.1169V10.7777H26.2365V23.3664C26.2365 23.8587 26.5265 24.3073 26.9755 24.5093C27.1398 24.5833 27.3149 24.6194 27.4887 24.6194C27.7896 24.6194 28.0872 24.5113 28.3206 24.3045L32.7069 20.4185L37.0933 24.3044C37.4616 24.631 37.9897 24.7113 38.4386 24.5093C38.8874 24.3072 39.1774 23.8587 39.1774 23.3664V10.7777H56.7327V47.9252C56.7327 48.5194 56.2491 49.003 55.6548 49.003H40.4692C40.4692 48.9936 40.468 48.9842 40.4679 48.9748C40.467 48.9005 40.4643 48.8263 40.458 48.7527C41.8838 49.1307 43.4073 48.3979 43.9787 46.9966C44.2793 46.2595 44.2748 45.4495 43.9662 44.7159C43.937 44.6468 43.905 44.5797 43.8712 44.5137C43.865 44.5016 43.859 44.4893 43.8528 44.4773C43.8196 44.4144 43.7842 44.3528 43.747 44.2929C43.7397 44.2812 43.7322 44.2699 43.7249 44.2584C43.6854 44.1969 43.6445 44.1365 43.6009 44.0784C43.6001 44.0772 43.5992 44.0762 43.5984 44.0752C43.5552 44.0178 43.5094 43.9625 43.4622 43.9084C43.4536 43.8986 43.4451 43.8886 43.4363 43.8788C43.3896 43.8267 43.341 43.7762 43.2907 43.7276C43.2808 43.7181 43.2708 43.709 43.2609 43.6997C43.2082 43.6502 43.1543 43.602 43.0981 43.5566C43.0962 43.5551 43.0942 43.5536 43.0923 43.5522C43.037 43.5077 42.9796 43.4655 42.921 43.425C42.9105 43.4176 42.9001 43.4101 42.8893 43.4029C42.8307 43.3634 42.7707 43.3262 42.7091 43.2907C42.704 43.2878 42.6993 43.2844 42.6941 43.2814C43.0442 42.9785 43.3204 42.5952 43.5003 42.1541C43.8009 41.4169 43.7965 40.607 43.4878 39.8733C43.2177 39.2313 42.7429 38.715 42.1349 38.3946C42.048 38.3488 41.9584 38.307 41.8663 38.2695L28.9764 33.0136L34.9764 31.1565C36.4039 30.7146 37.2078 29.1921 36.7685 27.7628C36.6046 27.2293 36.2796 26.7793 35.8598 26.4505C35.235 25.961 34.4 25.74 33.5719 25.9139C33.568 25.9148 33.5641 25.9155 33.5602 25.9165C33.5143 25.9268 28.9146 26.961 24.1107 27.8978C23.8976 27.9393 23.69 27.9794 23.4853 28.0189C23.3215 28.0503 23.1599 28.0814 23.0015 28.1115C22.9559 28.1202 22.9103 28.1288 22.8651 28.1375C22.5853 28.1906 22.3142 28.2415 22.0507 28.2904C21.9447 28.3101 21.8395 28.3296 21.7361 28.3486C15.7031 29.46 14.0083 29.48 13.538 29.4163C13.5361 29.4161 13.5346 29.4158 13.5328 29.4155C13.5256 29.4145 13.5186 29.4135 13.512 29.4124C13.5073 29.4116 13.5028 29.4108 13.4984 29.4102C13.4953 29.4096 13.4919 29.409 13.4888 29.4086C13.4595 29.4033 13.4366 29.3977 13.4189 29.3924L13.2832 29.3371L13.4523 28.9224C13.6186 28.5146 13.6161 28.0664 13.4454 27.6605C13.4027 27.559 13.3507 27.4632 13.2904 27.3739C13.1096 27.1063 12.854 26.8978 12.5481 26.7731L8.09979 24.9594C7.6921 24.7929 7.24384 24.7956 6.83796 24.9663C6.43196 25.137 6.11692 25.4556 5.95063 25.8633L0.511211 39.2037C0.16797 40.0454 0.573629 41.0095 1.41542 41.3528L5.86385 43.1667C6.06697 43.2495 6.2771 43.2887 6.48407 43.2887C7.13464 43.2887 7.75247 42.901 8.01291 42.2625L8.0538 42.1622L9.07945 42.5803C9.08001 42.5806 9.08058 42.5809 9.08126 42.5811C10.0623 42.9811 10.9661 43.5518 11.7485 44.2601C11.8907 44.3889 12.0289 44.5222 12.163 44.6598C12.297 44.7975 12.4266 44.9395 12.5517 45.0857C12.6143 45.1587 12.6758 45.2329 12.7359 45.308C13.8759 46.7295 15.3703 47.8445 17.0574 48.5325L18.2113 49.0029H9.75913C9.16486 49.0029 8.68126 48.5193 8.68126 47.925V45.8295C8.68126 45.372 8.3105 45.0013 7.85307 45.0013C7.39564 45.0013 7.02487 45.372 7.02487 45.8295V47.925C7.02487 49.4327 8.25136 50.6593 9.75913 50.6593H22.2736L32.9426 55.0095C33.3098 55.1593 33.6898 55.2303 34.0639 55.2302C35.2397 55.2302 36.3564 54.5296 36.8271 53.3753C37.0201 52.9019 37.0821 52.4071 37.0301 51.9315C37.585 52.0111 38.1604 51.938 38.6819 51.7128C39.212 51.4839 39.6513 51.1192 39.9633 50.6592H55.6549C57.1626 50.6592 58.3892 49.4327 58.3892 47.9249V9.94951C58.3891 9.94838 58.389 9.94747 58.389 9.94634ZM29.1928 4.42593H36.221L37.3075 9.12131H28.1064L29.1928 4.42593ZM26.4062 9.12131H9.06574L10.8999 4.42593H27.4927L26.4062 9.12131ZM37.5213 22.4705H37.5211L33.538 18.9418C33.3011 18.732 33.0041 18.6271 32.7072 18.6271C32.4101 18.6271 32.113 18.732 31.8761 18.9418L27.893 22.4705V10.7777H37.5213V22.4705ZM6.48203 41.6299L2.04787 39.8219L7.48151 26.4961L11.9157 28.3042L6.48203 41.6299ZM39.5697 46.628L38.6192 46.2403C38.6187 46.2401 38.6183 46.24 38.6178 46.2398C38.6175 46.2397 38.6171 46.2394 38.6168 46.2393C38.6167 46.2393 38.6166 46.2392 38.6165 46.2392L28.7173 42.2029C28.2938 42.0302 27.8105 42.2335 27.6377 42.6571C27.465 43.0807 27.6683 43.5641 28.092 43.7368L37.9914 47.7733C38.0327 47.7901 38.0727 47.8088 38.1113 47.8293C38.1222 47.8351 38.1323 47.8421 38.1429 47.8481C38.1701 47.8635 38.1974 47.8789 38.2231 47.896C38.2355 47.9043 38.2468 47.9138 38.2588 47.9224C38.2816 47.9388 38.3048 47.9548 38.3263 47.9725C38.3394 47.9832 38.3512 47.9951 38.3637 48.0062C38.383 48.0233 38.4027 48.0398 38.4208 48.0579C38.4334 48.0704 38.4446 48.0841 38.4566 48.097C38.4733 48.1149 38.4904 48.1325 38.506 48.1513C38.5179 48.1657 38.5283 48.1809 38.5397 48.1958C38.5538 48.2144 38.5685 48.2326 38.5816 48.2519C38.5926 48.2679 38.602 48.2849 38.6122 48.3014C38.6239 48.3204 38.6364 48.3391 38.6472 48.3587C38.6569 48.3764 38.6651 48.3948 38.674 48.4128C38.6835 48.4322 38.6938 48.4512 38.7024 48.4711C38.7107 48.4901 38.7174 48.5098 38.7248 48.5292C38.7322 48.5488 38.7404 48.568 38.747 48.588C38.7535 48.608 38.7585 48.6285 38.7641 48.6488C38.7696 48.6688 38.7758 48.6886 38.7805 48.7088C38.7851 48.7293 38.7881 48.7502 38.7918 48.7708C38.7956 48.7914 38.7999 48.8118 38.8026 48.8327C38.8053 48.8535 38.8063 48.8746 38.808 48.8955C38.8097 48.9166 38.8122 48.9376 38.8129 48.9586C38.8136 48.9794 38.8125 49.0003 38.8123 49.0212C38.8121 49.0427 38.8124 49.0642 38.8111 49.0858C38.8098 49.1063 38.8068 49.1268 38.8045 49.1474C38.8021 49.1694 38.8003 49.1915 38.7967 49.2135C38.7934 49.2337 38.7883 49.2537 38.7841 49.2739C38.7794 49.2962 38.7754 49.3185 38.7694 49.3407C38.7642 49.3603 38.7572 49.3798 38.7509 49.3993C38.7439 49.4215 38.7374 49.4437 38.7292 49.4656C38.7221 49.4806 38.7152 49.4958 38.7088 49.5111C38.7073 49.5146 38.7065 49.5182 38.7052 49.5216C38.5758 49.8204 38.337 50.0577 38.0251 50.1924C37.6819 50.3404 37.2889 50.3456 36.9468 50.2061L35.1929 49.4909C35.1847 49.4876 35.1765 49.4854 35.1683 49.4823C35.16 49.4786 35.1522 49.4743 35.1438 49.4709L27.0923 46.1879C26.6685 46.0152 26.1853 46.2185 26.0127 46.6421C25.8399 47.0657 26.0433 47.5491 26.4668 47.7218L34.5184 51.0048C34.527 51.0083 34.5357 51.0108 34.5445 51.014C34.5523 51.0174 34.5595 51.0216 34.5676 51.0248C35.2433 51.3004 35.569 52.0743 35.2935 52.75C35.0179 53.426 34.2443 53.7518 33.5682 53.4759L22.7504 49.065C22.75 49.0648 22.7495 49.0645 22.7491 49.0643L17.6831 46.9986C16.7914 46.635 15.9633 46.1303 15.2323 45.5094C14.7937 45.1369 14.3901 44.7226 14.0285 44.2717C13.6722 43.8276 13.2814 43.4133 12.8609 43.0326C11.9357 42.1951 10.8669 41.5203 9.70702 41.0472C9.70691 41.0472 9.7068 41.0471 9.70669 41.0471L8.67968 40.6284L10.7252 35.6117L12.6582 30.871L12.8008 30.9292C12.9351 30.9839 13.1265 31.0616 13.6417 31.0811C14.2854 31.1102 15.3502 31.043 17.2579 30.7735C18.5555 30.5902 20.1472 30.3251 22.0054 29.9833C22.0511 29.9749 22.0966 29.9665 22.1428 29.958C22.2297 29.9419 22.3175 29.9256 22.4056 29.9093C22.4741 29.8966 22.543 29.8837 22.6125 29.8707C22.6915 29.8558 22.7709 29.841 22.8509 29.8259C22.9358 29.8099 23.0216 29.7937 23.1079 29.7773C23.177 29.7642 23.246 29.7511 23.3158 29.7379C23.4211 29.7178 23.5281 29.6973 23.6355 29.6767C23.6908 29.6661 23.7455 29.6557 23.8012 29.645C23.9657 29.6133 24.1323 29.5811 24.302 29.5481C29.0894 28.617 33.7101 27.5806 33.9178 27.5339C33.9385 27.5296 33.9592 27.5271 33.98 27.524C34.5119 27.4453 35.0332 27.753 35.1857 28.2494C35.2393 28.4238 35.2456 28.6018 35.2118 28.7692C35.1376 29.1377 34.8698 29.4557 34.487 29.5741L26.2762 32.1154C25.9419 32.219 25.7088 32.5211 25.6937 32.8707C25.6785 33.2201 25.8845 33.5415 26.2084 33.6736L41.2413 39.8034C41.5687 39.9368 41.8245 40.1898 41.9615 40.5157C42.0986 40.8416 42.1006 41.2014 41.9671 41.5286C41.8335 41.856 41.5807 42.1118 41.2548 42.2489C41.0919 42.3173 40.9205 42.352 40.7489 42.353C40.7464 42.353 40.7439 42.3526 40.7414 42.3526C40.7011 42.3526 40.6608 42.3511 40.6206 42.3473C40.6087 42.3462 40.597 42.3437 40.5851 42.3423C40.5544 42.3386 40.5237 42.3351 40.4932 42.3292C40.4739 42.3255 40.4549 42.3198 40.4358 42.3153C40.4129 42.3098 40.3899 42.3052 40.3672 42.2985C40.3438 42.2916 40.3208 42.2824 40.2977 42.2741C40.2793 42.2676 40.2606 42.2621 40.2425 42.2548L30.3422 38.2179C29.9186 38.0451 29.4354 38.2485 29.2626 38.6721C29.0899 39.0957 29.2932 39.5791 29.7169 39.7518L41.7196 44.6459C41.8015 44.6792 41.8788 44.7201 41.951 44.7677C42.1675 44.9104 42.3371 45.1138 42.4398 45.3582C42.5598 45.6433 42.5763 45.9544 42.4891 46.247C42.4766 46.2888 42.462 46.3303 42.4454 46.3712C42.4281 46.4134 42.409 46.4543 42.388 46.4937C42.3392 46.5855 42.2797 46.6684 42.2134 46.744C42.1721 46.7909 42.1281 46.8346 42.0812 46.8747C42.0737 46.8811 42.0669 46.8883 42.0593 46.8944C41.7571 47.1416 41.353 47.2479 40.9582 47.1681C40.8781 47.1519 40.7985 47.1289 40.7201 47.097L39.5697 46.628Z"/>
</g>

</symbol><symbol id="09" viewBox="0 0 59 59">
<g clip-path="url(#clip0)">
<path d="M48.225 38.8184H42.4127V40.7558H48.225V38.8184Z"/>
<path d="M40.4752 38.8184H34.6629V40.7558H40.4752V38.8184Z"/>
<path d="M32.7255 38.8184H26.9131V40.7558H32.7255V38.8184Z"/>
<path d="M57.8995 20.2221L38.7315 1.05116C38.1872 0.50166 37.4455 0.192881 36.672 0.19385H36.6633C35.8949 0.194213 35.1589 0.503113 34.6203 1.05116L14.2869 21.3816H3.66396C2.05892 21.3816 0.757812 22.6827 0.757812 24.2878V51.4119C0.757812 53.0169 2.05892 54.318 3.66396 54.318H18.0165L20.9071 57.2116C21.4514 57.7611 22.1931 58.0699 22.9666 58.0689H22.9744C23.743 58.0686 24.4795 57.7597 25.0184 57.2116L27.9148 54.318H50.1624C51.7674 54.318 53.0685 53.0169 53.0685 51.4119V29.1643L57.8947 24.3382C58.4455 23.7989 58.7565 23.061 58.7578 22.2903C58.7607 21.5136 58.4514 20.7684 57.8995 20.2221ZM45.5765 10.6386L34.8334 21.3816H26.607L41.4633 6.52539L45.5765 10.6386ZM35.992 2.41706C36.3605 2.03962 36.9652 2.03235 37.3427 2.40095C37.3482 2.40628 37.3536 2.41161 37.3588 2.41706L40.0935 5.15562L23.8665 21.3816H17.0264L35.992 2.41706ZM23.6466 55.8457C23.4695 56.0307 23.2247 56.1356 22.9685 56.1363C22.7089 56.1357 22.4605 56.0311 22.2788 55.8457L20.757 54.318H25.1753L23.6466 55.8457ZM51.1311 51.4119C51.1311 51.9468 50.6973 52.3806 50.1624 52.3806H3.66396C3.12899 52.3806 2.69525 51.9468 2.69525 51.4119V37.8498H51.1311V51.4119ZM51.1311 35.9124H2.69525V30.1001H51.1311V35.9124ZM51.1311 28.1627H2.69525V24.2878C2.69525 23.7528 3.12899 23.3191 3.66396 23.3191H50.1624C50.6973 23.3191 51.1311 23.7528 51.1311 24.2878V28.1627ZM56.5297 22.9635L53.0685 26.4248V24.2878C53.0685 22.6827 51.7674 21.3816 50.1624 21.3816H37.569L46.9423 12.0083L56.5259 21.5918C56.712 21.7742 56.8167 22.0239 56.8165 22.2845C56.8162 22.5402 56.7128 22.7851 56.5297 22.9635Z"/>
<path d="M10.0488 50.4696C10.1902 50.3473 10.3227 50.2148 10.445 50.0733C11.726 51.5654 13.927 51.8489 15.5443 50.7301C16.5881 50.0003 17.2146 48.8109 17.226 47.5373C17.226 45.3972 15.4911 43.6624 13.3511 43.6624C13.1588 43.6597 12.9668 43.676 12.7776 43.7108L12.7524 43.7176C12.7428 43.7176 12.7331 43.7176 12.7243 43.7176C11.8369 43.8651 11.0298 44.3205 10.445 45.0041C9.04516 43.3853 6.59806 43.2079 4.97946 44.6079C3.36073 46.0076 3.18334 48.4547 4.58325 50.0733C5.98305 51.6921 8.43003 51.8695 10.0488 50.4696ZM13.106 45.6202C13.1868 45.6048 13.2689 45.598 13.3511 45.5998C14.4212 45.5998 15.2885 46.4672 15.2885 47.5373C15.2876 47.9471 15.154 48.3458 14.9078 48.6736C14.873 48.721 14.8458 48.7704 14.8061 48.8198C14.7993 48.8276 14.7896 48.8324 14.7819 48.8402C14.416 49.2442 13.8963 49.4748 13.3511 49.4747C12.2813 49.4564 11.4287 48.5744 11.447 47.5046C11.4632 46.5546 12.1658 45.7565 13.106 45.6202ZM7.53881 45.5998C8.60887 45.5998 9.47624 46.4672 9.47624 47.5373C9.47624 48.6073 8.60887 49.4747 7.53881 49.4747C6.46874 49.4747 5.60137 48.6073 5.60137 47.5373C5.60137 46.4672 6.46874 45.5998 7.53881 45.5998Z"/>
</g>

</symbol><symbol id="10" viewBox="0 0 59 59">
<g clip-path="url(#clip0)">
<path d="M58.6538 34.444C58.6538 32.9916 58.0762 31.6382 57.0806 30.6401C58.2092 29.4052 58.7843 27.7497 58.6272 26.0267C58.3444 22.9551 55.5773 20.5481 52.3246 20.5481H37.3968C38.1363 18.303 39.3204 14.1875 39.3204 10.8815C39.3204 5.63972 34.8666 1.21484 32.0704 1.21484C29.5619 1.21484 27.7663 2.62859 27.6914 2.68659C27.4038 2.91621 27.2371 3.26421 27.2371 3.63147V11.8264L20.2747 26.904L19.9871 27.0514V26.5897C19.9871 25.9227 19.4457 25.3814 18.7787 25.3814H6.69544C3.36293 25.3815 0.653809 28.0906 0.653809 31.4231V50.7565C0.653809 54.0891 3.36293 56.7981 6.69544 56.7981H13.9454C16.5578 56.7981 18.7908 55.1306 19.6318 52.8034C21.6426 53.8377 24.3492 54.3815 26.0288 54.3815H48.2114C50.8432 54.3815 53.1463 52.6076 53.6876 50.162C53.9654 48.9005 53.8036 47.6317 53.2526 46.5297C55.0361 45.6331 56.2372 43.7892 56.2372 41.694C56.2372 40.8385 56.0414 40.0192 55.6717 39.2797C57.4552 38.3807 58.6538 36.5392 58.6538 34.444ZM53.5571 37.4261C53.0907 37.4817 52.6967 37.7982 52.5469 38.2454C52.3996 38.6925 52.5228 39.183 52.8659 39.5069C53.4798 40.0845 53.8206 40.8626 53.8206 41.694C53.8206 43.2189 52.6678 44.4997 51.1429 44.6761C50.6765 44.7317 50.2826 45.0482 50.1328 45.4954C49.9854 45.9425 50.1087 46.433 50.4518 46.7569C51.2469 47.506 51.5659 48.5572 51.3267 49.64C51.0294 50.9885 49.7195 51.9648 48.2115 51.9648H26.0288C24.0664 51.9648 20.7749 51.0441 19.6343 49.901C19.2887 49.5578 18.7667 49.4563 18.3172 49.64C17.8653 49.8261 17.5704 50.2683 17.5704 50.7565C17.5704 52.7551 15.9441 54.3815 13.9454 54.3815H6.69544C4.69682 54.3815 3.07044 52.7551 3.07044 50.7565V31.4231C3.07044 29.4245 4.69682 27.7981 6.69544 27.7981H17.5704V29.0065C17.5704 29.4246 17.7879 29.8136 18.1456 30.036C18.4984 30.2486 18.9431 30.2704 19.3201 30.0867L21.7367 28.8784C21.9808 28.7575 22.1766 28.5545 22.2926 28.3056L29.5426 12.5972C29.6151 12.4377 29.6537 12.2637 29.6537 12.0897V4.28635C30.1564 4.00847 31.0289 3.63147 32.0704 3.63147C33.3948 3.63147 36.9038 6.92297 36.9038 10.8815C36.9038 15.1348 34.5887 21.2659 34.5669 21.3263C34.4268 21.6961 34.4751 22.1142 34.6998 22.4428C34.9269 22.7691 35.2992 22.9648 35.6954 22.9648H52.3246C54.3401 22.9648 56.0511 24.4076 56.2202 26.2491C56.3483 27.6266 55.6861 28.9365 54.4996 29.6687C54.1298 29.8958 53.9099 30.3067 53.9268 30.7441C53.9437 31.1815 54.1951 31.573 54.5817 31.7736C55.6039 32.2932 56.2371 33.3178 56.2371 34.444C56.2372 35.9689 55.0844 37.2497 53.5571 37.4261Z"/>
<path d="M18.7788 27.7979C18.1118 27.7979 17.5704 28.3392 17.5704 29.0062V50.7562C17.5704 51.4232 18.1118 51.9646 18.7788 51.9646C19.4458 51.9646 19.9872 51.4232 19.9872 50.7562V29.0062C19.9872 28.3392 19.4458 27.7979 18.7788 27.7979Z"/>
</g>

</symbol><symbol id="adress" viewBox="0 0 14 14">
<g clip-path="url(#clip0)">
<path d="M11.9066 3.55838C11.4487 2.07841 10.2447 0.874109 8.76475 0.416088C7.19835 -0.0691271 5.53176 0.200547 4.25966 1.13787C2.99694 2.06871 2.24316 3.55985 2.24316 5.12656C2.24316 6.20736 2.58507 7.23418 3.2317 8.09584L7.19581 13.1792L11.1599 8.09546C12.1276 6.80521 12.4 5.15149 11.9066 3.55838ZM7.19581 7.79333C5.72549 7.79333 4.52901 6.59685 4.52901 5.12653C4.52901 3.65621 5.72549 2.45973 7.19581 2.45973C8.66613 2.45973 9.86261 3.65621 9.86261 5.12653C9.86261 6.59685 8.66613 7.79333 7.19581 7.79333Z"/>
<path d="M7.19586 3.22705C6.14558 3.22705 5.29102 4.07654 5.29102 5.12683C5.29102 6.17711 6.14558 7.03168 7.19586 7.03168C8.24614 7.03168 9.10071 6.17711 9.10071 5.12683C9.10073 4.07654 8.24614 3.22705 7.19586 3.22705Z"/>
</g>

</symbol><symbol id="arrow-down" viewBox="0 0 330 330">
<path id="XMLID_225_" d="M325.607,79.393c-5.857-5.857-15.355-5.858-21.213,0.001l-139.39,139.393L25.607,79.393
	c-5.857-5.857-15.355-5.858-21.213,0.001c-5.858,5.858-5.858,15.355,0,21.213l150.004,150c2.813,2.813,6.628,4.393,10.606,4.393
	s7.794-1.581,10.606-4.394l149.996-150C331.465,94.749,331.465,85.251,325.607,79.393z"/>
<g>
</g>
<g>
</g>
<g>
</g>
<g>
</g>
<g>
</g>
<g>
</g>
<g>
</g>
<g>
</g>
<g>
</g>
<g>
</g>
<g>
</g>
<g>
</g>
<g>
</g>
<g>
</g>
<g>
</g>
</symbol><symbol id="arrow-long" viewBox="0 0 38 12">
<path d="M36.8882 6.23053C37.181 5.93763 37.181 5.46276 36.8882 5.16987L32.1152 0.396894C31.8223 0.104001 31.3474 0.104001 31.0545 0.396894C30.7616 0.689788 30.7616 1.16466 31.0545 1.45755L35.2972 5.7002L31.0545 9.94284C30.7616 10.2357 30.7616 10.7106 31.0545 11.0035C31.3474 11.2964 31.8223 11.2964 32.1152 11.0035L36.8882 6.23053ZM0.184082 6.4502H36.3578V4.9502H0.184082V6.4502Z"/>
</symbol><symbol id="arrow-r" viewBox="0 0 13 12">
<g clip-path="url(#clip0)">
<path d="M9.58653 5.69814L4.03618 0.624392C3.85433 0.458254 3.55991 0.458533 3.37836 0.625251C3.19696 0.791948 3.19743 1.06198 3.3793 1.22825L8.59928 6.00002L3.37911 10.7718C3.19726 10.9381 3.19679 11.2079 3.37818 11.3746C3.46918 11.4582 3.58841 11.5 3.70764 11.5C3.82656 11.5 3.94531 11.4585 4.03616 11.3755L9.58653 6.30187C9.67412 6.22199 9.72327 6.11328 9.72327 6.00002C9.72327 5.88675 9.67398 5.77817 9.58653 5.69814Z"/>
</g>

</symbol><symbol id="arrow-select" viewBox="0 0 8 8">
<path d="M3.73926 7.17218L0.00198555 0.699036L7.47653 0.699036L3.73926 7.17218Z"/>
</symbol><symbol id="big-arrow" viewBox="0 0 16 12">
<path d="M15.6016 6.69708C15.8945 6.40418 15.8945 5.92931 15.6016 5.63642L10.8286 0.863447C10.5358 0.570554 10.0609 0.570554 9.76799 0.863447C9.4751 1.15634 9.4751 1.63121 9.76799 1.92411L14.0106 6.16675L9.76799 10.4094C9.4751 10.7023 9.4751 11.1772 9.76799 11.47C10.0609 11.7629 10.5358 11.7629 10.8286 11.47L15.6016 6.69708ZM0.0712891 6.91675H15.0713V5.41675H0.0712891V6.91675Z"/>
</symbol><symbol id="cart" viewBox="0 0 46 46">
<g clip-path="url(#clip0)">
<path d="M14.8202 29.1336H14.8222C14.824 29.1336 14.8257 29.1332 14.8274 29.1332H38.7299C39.3183 29.1332 39.8357 28.7429 39.9974 28.1771L45.2708 9.72005C45.3845 9.32214 45.3048 8.89436 45.0559 8.56409C44.8067 8.23381 44.417 8.03949 44.0033 8.03949H11.7797L10.8373 3.79842C10.703 3.19521 10.1682 2.76605 9.55017 2.76605H1.64001C0.911827 2.76605 0.321655 3.35622 0.321655 4.08441C0.321655 4.8126 0.911827 5.40277 1.64001 5.40277H8.49274C8.65959 6.1543 13.0026 25.6983 13.2526 26.8227C11.8515 27.4317 10.8685 28.8287 10.8685 30.4516C10.8685 32.6324 12.6428 34.4067 14.8236 34.4067H38.7299C39.458 34.4067 40.0482 33.8165 40.0482 33.0883C40.0482 32.3601 39.458 31.77 38.7299 31.77H14.8236C14.0968 31.77 13.5052 31.1784 13.5052 30.4516C13.5052 29.7258 14.0947 29.1353 14.8202 29.1336ZM42.2554 10.6762L37.7353 26.4965H15.881L12.3654 10.6762H42.2554Z"/>
<path d="M13.5052 38.3618C13.5052 40.5425 15.2795 42.3168 17.4603 42.3168C19.6411 42.3168 21.4154 40.5425 21.4154 38.3618C21.4154 36.181 19.6411 34.4067 17.4603 34.4067C15.2795 34.4067 13.5052 36.181 13.5052 38.3618ZM17.4603 37.0434C18.1871 37.0434 18.7787 37.6349 18.7787 38.3618C18.7787 39.0886 18.1871 39.6801 17.4603 39.6801C16.7335 39.6801 16.1419 39.0886 16.1419 38.3618C16.1419 37.6349 16.7335 37.0434 17.4603 37.0434Z"/>
<path d="M32.1381 38.3618C32.1381 40.5425 33.9124 42.3168 36.0931 42.3168C38.2739 42.3168 40.0482 40.5425 40.0482 38.3618C40.0482 36.181 38.2739 34.4067 36.0931 34.4067C33.9124 34.4067 32.1381 36.181 32.1381 38.3618ZM36.0931 37.0434C36.82 37.0434 37.4115 37.6349 37.4115 38.3618C37.4115 39.0886 36.82 39.6801 36.0931 39.6801C35.3663 39.6801 34.7748 39.0886 34.7748 38.3618C34.7748 37.6349 35.3663 37.0434 36.0931 37.0434Z"/>
</g>

</symbol><symbol id="clock" viewBox="0 0 14 14">
<g clip-path="url(#clip0)">
<path d="M7.32227 11.3773L8.27289 11.6804L8.06735 10.7153L7.32227 11.3773Z"/>
<path d="M6.82288 6.54337C6.82288 6.66299 6.72538 6.76009 6.60529 6.76009C6.48519 6.76009 6.3877 6.66299 6.3877 6.54337C6.3877 6.42376 6.48519 6.32666 6.60529 6.32666C6.72538 6.32666 6.82288 6.42376 6.82288 6.54337Z"/>
<path d="M6.60542 0.043457C3.00099 0.043457 0.0791016 2.95356 0.0791016 6.54346C0.0791016 10.1334 3.00099 13.0435 6.60542 13.0435C10.2098 13.0435 13.1317 10.1334 13.1317 6.54346C13.1317 2.95356 10.2098 0.043457 6.60542 0.043457ZM8.6429 11.3305L8.77624 11.9555C8.80094 12.0727 8.72555 12.1875 8.60804 12.2121C8.5715 12.2197 8.53366 12.2179 8.498 12.2067L6.82799 11.674C6.71347 11.6376 6.65013 11.5159 6.68658 11.4018C6.69833 11.3647 6.72004 11.3315 6.74922 11.3056L8.05814 10.1427C8.14787 10.063 8.28539 10.0709 8.36536 10.1601C8.39055 10.1883 8.40798 10.2226 8.41585 10.2595L8.55158 10.8963C10.9629 9.82401 12.0449 7.00773 10.9683 4.60613C9.89158 2.20444 7.064 1.12682 4.65258 2.19918C2.24126 3.27154 1.15929 6.08772 2.23598 8.48941C2.76089 9.66035 3.73791 10.571 4.94576 11.0153L6.2021 7.05028C5.96191 6.8651 5.88553 6.53731 6.01917 6.26565L4.27725 4.53065C4.1938 4.44456 4.19619 4.3074 4.28263 4.22428C4.36688 4.14315 4.50062 4.14315 4.58486 4.22428L6.32569 5.95848C6.41282 5.91613 6.50842 5.89391 6.60542 5.89342C6.96581 5.89163 7.25958 6.18114 7.26137 6.54008C7.26327 6.89912 6.97258 7.19161 6.61219 7.1935L5.2936 11.355C5.27747 11.4058 5.24311 11.4489 5.19701 11.4761C5.16165 11.4968 5.12132 11.5078 5.08019 11.5079C5.05858 11.5079 5.03707 11.5046 5.01646 11.4982C2.26755 10.6258 0.7493 7.69913 1.62524 4.9613C2.50118 2.22348 5.43969 0.711349 8.1885 1.58376C10.9374 2.45616 12.4558 5.38283 11.5798 8.12065C11.1175 9.56583 10.0448 10.7381 8.6429 11.3305ZM10.0862 6.54346C10.0862 6.42384 10.1836 6.32674 10.3037 6.32674H10.7387C10.8589 6.32674 10.9563 6.42384 10.9563 6.54346C10.9563 6.66307 10.8589 6.76017 10.7387 6.76017H10.3037C10.1836 6.76017 10.0862 6.66307 10.0862 6.54346ZM6.82301 2.4268V2.86013C6.82301 2.97974 6.72552 3.07674 6.60542 3.07674C6.48532 3.07674 6.38783 2.97974 6.38783 2.86013V2.4268C6.38783 2.30709 6.48532 2.21009 6.60542 2.21009C6.72552 2.21009 6.82301 2.30709 6.82301 2.4268ZM3.12467 6.54346C3.12467 6.66307 3.02728 6.76017 2.90718 6.76017H2.4721C2.3519 6.76017 2.25451 6.66307 2.25451 6.54346C2.25451 6.42384 2.3519 6.32674 2.4721 6.32674H2.90718C3.02728 6.32674 3.12467 6.42384 3.12467 6.54346Z"/>
</g>

</symbol><symbol id="close" viewBox="0 0 409.806 409.806">
<g>
	<g>
		<path d="M228.929,205.01L404.596,29.343c6.78-6.548,6.968-17.352,0.42-24.132c-6.548-6.78-17.352-6.968-24.132-0.42
			c-0.142,0.137-0.282,0.277-0.42,0.42L204.796,180.878L29.129,5.21c-6.78-6.548-17.584-6.36-24.132,0.42
			c-6.388,6.614-6.388,17.099,0,23.713L180.664,205.01L4.997,380.677c-6.663,6.664-6.663,17.468,0,24.132
			c6.664,6.662,17.468,6.662,24.132,0l175.667-175.667l175.667,175.667c6.78,6.548,17.584,6.36,24.132-0.42
			c6.387-6.614,6.387-17.099,0-23.712L228.929,205.01z"/>
	</g>
</g>
<g>
</g>
<g>
</g>
<g>
</g>
<g>
</g>
<g>
</g>
<g>
</g>
<g>
</g>
<g>
</g>
<g>
</g>
<g>
</g>
<g>
</g>
<g>
</g>
<g>
</g>
<g>
</g>
<g>
</g>
</symbol><symbol id="delete" viewBox="0 0 23 20">
<g clip-path="url(#clip0)">
<path d="M4.9555 2.60004V19.2682C4.9555 19.6722 5.33192 20 5.79705 20H17.2046C17.6697 20 18.0461 19.6722 18.0461 19.2682L18.0258 2.60004H4.9555ZM7.80721 18.7651H6.54489V3.58076H7.80721V18.7651ZM12.1318 18.7651H10.8693V3.58076H12.1318V18.7651ZM16.62 18.7651H15.3577V3.58076H16.62V18.7651ZM18.814 0.727623V1.86648H4.1875V0.727623H8.64987V-7.62939e-06H14.3518V0.727623H18.814Z"/>
</g>

</symbol><symbol id="filter" viewBox="0 0 27 22">
<line y1="6.00519" x2="27" y2="6.00519"/>
<circle cx="8.15747" cy="5.52924" r="4.28247"/>
<line y1="17.0052" x2="27" y2="17.0052"/>
<circle cx="17.1575" cy="16.5292" r="4.28247"/>
</symbol><symbol id="garanty" viewBox="0 0 66 65">
<g clip-path="url(#clip0)">
<path d="M55.2142 40.5342C57.9721 36.4093 59.5799 31.4754 59.5799 26.1776C59.5799 11.7432 47.6555 0 32.999 0C18.3425 0 6.41862 11.7432 6.41862 26.1776C6.41862 31.4754 8.02643 36.4093 10.7838 40.5342L0.386719 55.4676L12.2839 53.2831L14.5025 65L24.3074 50.9166C27.0325 51.848 29.9566 52.3553 32.999 52.3553C36.0419 52.3553 38.9659 51.848 41.6906 50.9166L51.496 65L53.7141 53.2831L65.6113 55.4676L55.2142 40.5342ZM16.6047 55.2058L15.3947 48.8145L8.90561 50.0066L13.2844 43.717C15.3816 46.0012 17.8817 47.9193 20.6723 49.3644L16.6047 55.2058ZM10.3085 26.1776C10.3085 13.8557 20.4875 3.83091 32.999 3.83091C45.511 3.83091 55.69 13.8557 55.69 26.1776C55.69 38.5 45.511 48.5249 32.999 48.5249C20.4875 48.5249 10.3085 38.5 10.3085 26.1776ZM50.6033 48.8145L49.3932 55.2058L45.3262 49.3644C48.1168 47.9193 50.6169 46.0012 52.7141 43.717L57.0929 50.0061L50.6033 48.8145Z"/>
<path d="M28.2606 31.9267L21.9361 25.6985L19.1858 28.4072L28.2606 37.3445L46.8125 19.0741L44.0622 16.3655L28.2606 31.9267Z"/>
</g>

</symbol><symbol id="gift" viewBox="0 0 18 18">
<g clip-path="url(#clip0)">
<path d="M16.7277 4.27705H15.4251C15.5969 4.01873 15.7103 3.72877 15.7427 3.42211C15.8459 2.44205 15.3026 1.5635 14.3777 1.17399C13.5274 0.815961 12.572 0.96232 11.884 1.55513L10.2392 2.97124C9.91889 2.63841 9.45842 2.42923 8.94737 2.42923C8.43541 2.42923 7.9742 2.63908 7.65381 2.97294L6.00693 1.55496C5.31781 0.962154 4.36275 0.816359 3.51293 1.17419C2.5882 1.56373 2.04479 2.44258 2.14838 3.42261C2.18078 3.72904 2.29409 4.01887 2.46587 4.27705H1.16704C0.522477 4.27705 0 4.77344 0 5.38574V7.04879C0 7.35492 0.261256 7.60314 0.583536 7.60314H17.3112C17.6335 7.60314 17.8948 7.35495 17.8948 7.04879V5.38574C17.8947 4.77344 17.3723 4.27705 16.7277 4.27705ZM7.19679 4.09228V4.27705H4.45167C3.72637 4.27705 3.15556 3.63471 3.3367 2.91732C3.4165 2.60139 3.65654 2.33208 3.967 2.19575C4.39333 2.00855 4.86559 2.06865 5.22366 2.37654L7.19728 4.07594C7.19718 4.08142 7.19679 4.0868 7.19679 4.09228ZM14.5847 3.27492C14.5412 3.85109 13.9934 4.27712 13.3853 4.27712H10.6979V4.09235C10.6979 4.0858 10.6975 4.07933 10.6975 4.07279C11.1445 3.68777 12.1145 2.85264 12.6405 2.39965C12.9395 2.14223 13.3578 2.02206 13.7445 2.13163C14.2994 2.28888 14.6253 2.73719 14.5847 3.27492Z"/>
<path d="M1.16699 8.71185V16.8423C1.16699 17.4546 1.68947 17.951 2.33403 17.951H7.78025V8.71185H1.16699Z"/>
<path d="M10.1144 8.71185V17.951H15.5606C16.2052 17.951 16.7276 17.4546 16.7276 16.8423V8.71185H10.1144Z"/>
</g>

</symbol><symbol id="gift2" viewBox="0 0 65 65">
<g clip-path="url(#clip0)">
<path d="M60.042 18.2425H47.386C48.294 17.6225 49.074 17.0065 49.618 16.4545C52.842 13.2105 52.842 7.93054 49.618 4.68655C46.486 1.53455 41.022 1.53055 37.886 4.68655C36.154 6.42655 31.55 13.5105 32.186 18.2425H31.898C32.53 13.5105 27.93 6.42655 26.198 4.68655C23.062 1.53055 17.598 1.53455 14.466 4.68655C11.242 7.93054 11.242 13.2105 14.462 16.4545C15.01 17.0065 15.79 17.6225 16.698 18.2425H4.04199C1.83799 18.2425 0.0419922 20.0385 0.0419922 22.2425V32.2425C0.0419922 33.3465 0.937992 34.2425 2.04199 34.2425H4.04199V58.2425C4.04199 60.4465 5.83799 62.2425 8.04199 62.2425H56.042C58.246 62.2425 60.042 60.4465 60.042 58.2425V34.2425H62.042C63.146 34.2425 64.042 33.3465 64.042 32.2425V22.2425C64.042 20.0385 62.246 18.2425 60.042 18.2425ZM17.302 7.50655C18.114 6.69055 19.19 6.24255 20.334 6.24255C21.474 6.24255 22.55 6.69055 23.362 7.50655C26.058 10.2185 28.738 17.1465 27.806 18.1105C27.806 18.1105 27.638 18.2425 27.066 18.2425C24.302 18.2425 19.026 15.3705 17.302 13.6345C15.626 11.9465 15.626 9.19454 17.302 7.50655ZM30.042 58.2425H8.04199V34.2425H30.042V58.2425ZM30.042 30.2425H4.04199V22.2425H27.066H30.042V30.2425ZM40.722 7.50655C42.346 5.87855 45.162 5.88254 46.782 7.50655C48.458 9.19454 48.458 11.9465 46.782 13.6345C45.058 15.3705 39.782 18.2425 37.018 18.2425C36.446 18.2425 36.278 18.1145 36.274 18.1105C35.346 17.1465 38.026 10.2185 40.722 7.50655ZM56.042 58.2425H34.042V34.2425H56.042V58.2425ZM60.042 30.2425H34.042V22.2425H37.018H60.042V30.2425Z"/>
</g>

</symbol><symbol id="mail" viewBox="0 0 22 23">
<g clip-path="url(#clip0)">
<path d="M21.5407 4.36803C18.5213 6.92514 13.2232 11.4239 11.666 12.8266C11.4569 13.0159 11.2327 13.1122 11 13.1122C10.7677 13.1122 10.5438 13.0168 10.3353 12.8284C8.77675 11.4243 3.47862 6.92514 0.459162 4.36803C0.271173 4.20913 0.242514 3.92984 0.394709 3.73557C0.746536 3.28668 1.2711 3.0293 1.8333 3.0293H20.1666C20.7288 3.0293 21.2534 3.28668 21.6052 3.73562C21.7574 3.92984 21.7287 4.20913 21.5407 4.36803Z"/>
<path d="M0.265707 5.75367C0.428173 5.67804 0.619298 5.70443 0.754478 5.81993C2.73195 7.49614 5.33736 9.71083 7.30228 11.4009C7.40566 11.4896 7.46384 11.6198 7.46161 11.7563C7.45937 11.8924 7.39625 12.0208 7.28973 12.1059C5.46399 13.5681 2.71265 15.5796 0.725817 17.0092C0.646582 17.0665 0.552609 17.0956 0.458164 17.0956C0.386535 17.0956 0.314949 17.0791 0.249121 17.045C0.0960231 16.9667 -0.000183105 16.8091 -0.000183105 16.6373V6.16948C-0.000139713 5.9909 0.103715 5.82843 0.265707 5.75367Z"/>
<path d="M21.274 17.0089C19.2867 15.5792 16.5349 13.5678 14.7096 12.1055C14.6031 12.0204 14.54 11.892 14.5377 11.7559C14.5355 11.6194 14.5937 11.4892 14.6971 11.4005C16.662 9.71044 19.2679 7.49574 21.2453 5.81953C21.3814 5.70403 21.573 5.67855 21.7341 5.75327C21.8961 5.82804 22 5.9905 22 6.16908V16.6369C22 16.8088 21.9038 16.9664 21.7507 17.0447C21.6849 17.0787 21.6133 17.0953 21.5417 17.0953C21.4472 17.0953 21.3532 17.0662 21.274 17.0089Z"/>
<path d="M0.56167 18.2563C2.48048 16.8835 6.01513 14.3242 8.12507 12.6117C8.29695 12.4716 8.54582 12.4761 8.71499 12.622C9.12899 12.9832 9.47545 13.2876 9.72119 13.5086C10.4758 14.1899 11.5232 14.1899 12.2796 13.5077C12.5245 13.2871 12.8709 12.9818 13.2849 12.6219C13.4528 12.4751 13.7021 12.4707 13.8744 12.6116C15.9772 14.3183 19.5159 16.8808 21.4378 18.2562C21.5448 18.3332 21.6137 18.4518 21.6271 18.583C21.6401 18.7141 21.5967 18.8443 21.5067 18.941C21.1598 19.3148 20.671 19.5292 20.1666 19.5292H1.83324C1.32879 19.5292 0.840494 19.3148 0.492704 18.9411C0.4032 18.8448 0.359329 18.7146 0.372307 18.5834C0.385756 18.4523 0.454678 18.3333 0.56167 18.2563Z"/>
</g>

</symbol><symbol id="menu" viewBox="0 0 28 16">
<line x1="0.939941" y1="1.25" x2="27.9399" y2="1.25" stroke-width="1.5"/>
<line x1="0.939941" y1="8.25" x2="20.9399" y2="8.25" stroke-width="1.5"/>
<line x1="0.939941" y1="15.25" x2="27.9399" y2="15.25" stroke-width="1.5"/>
</symbol><symbol id="next" viewBox="0 0 19 18">
<g clip-path="url(#clip0)">
<path d="M14.0694 8.88078L5.4916 1.03953C5.21055 0.782773 4.75554 0.783205 4.47497 1.04086C4.19461 1.29848 4.19534 1.71581 4.47642 1.97277L12.5437 9.34732L4.47613 16.7218C4.19509 16.9788 4.19436 17.3959 4.47468 17.6535C4.61533 17.7827 4.79959 17.8473 4.98384 17.8473C5.16763 17.8473 5.35117 17.7831 5.49156 17.6549L14.0694 9.81382C14.2048 9.69037 14.2807 9.52237 14.2807 9.34732C14.2807 9.17227 14.2046 9.00447 14.0694 8.88078Z"/>
</g>

</symbol><symbol id="ok" viewBox="0 0 15 16">
<g clip-path="url(#clip0)">
<path d="M5.4059 13.8614C5.27114 14.0054 5.08728 14.0858 4.89629 14.0858C4.7053 14.0858 4.52144 14.0054 4.38668 13.8614L0.316775 9.5364C-0.105592 9.08763 -0.105592 8.35993 0.316775 7.91201L0.826388 7.3704C1.24889 6.92164 1.93299 6.92164 2.35536 7.3704L4.89629 10.0703L11.7623 2.77505C12.1848 2.32629 12.8695 2.32629 13.2912 2.77505L13.8008 3.31665C14.2232 3.76542 14.2232 4.49298 13.8008 4.94104L5.4059 13.8614Z"/>
</g>

</symbol><symbol id="phone" viewBox="0 0 18 18">
<g clip-path="url(#clip0)">
<path d="M16.5377 11.48C15.5019 11.482 14.4724 11.3182 13.4884 10.995C13.0283 10.8343 12.517 10.9426 12.1615 11.276L10.2307 12.7326C8.15708 11.6915 6.47458 10.0094 5.43311 7.93593L6.85125 6.05161C7.2093 5.69331 7.33735 5.16515 7.18322 4.68266C6.85876 3.69726 6.69414 2.66632 6.69557 1.62891C6.69557 0.88769 6.09468 0.286804 5.35346 0.286804H2.22187C1.48065 0.286804 0.879761 0.88769 0.879761 1.62891C0.889617 10.2725 7.89411 17.2769 16.5377 17.2868C17.2789 17.2868 17.8798 16.6859 17.8798 15.9447V12.8221C17.8798 12.0809 17.2789 11.48 16.5377 11.48Z"/>
</g>

</symbol><symbol id="phone2" viewBox="0 0 482.6 482.6">
<g>
	<path d="M98.339,320.8c47.6,56.9,104.9,101.7,170.3,133.4c24.9,11.8,58.2,25.8,95.3,28.2c2.3,0.1,4.5,0.2,6.8,0.2
		c24.9,0,44.9-8.6,61.2-26.3c0.1-0.1,0.3-0.3,0.4-0.5c5.8-7,12.4-13.3,19.3-20c4.7-4.5,9.5-9.2,14.1-14
		c21.3-22.2,21.3-50.4-0.2-71.9l-60.1-60.1c-10.2-10.6-22.4-16.2-35.2-16.2c-12.8,0-25.1,5.6-35.6,16.1l-35.8,35.8
		c-3.3-1.9-6.7-3.6-9.9-5.2c-4-2-7.7-3.9-11-6c-32.6-20.7-62.2-47.7-90.5-82.4c-14.3-18.1-23.9-33.3-30.6-48.8
		c9.4-8.5,18.2-17.4,26.7-26.1c3-3.1,6.1-6.2,9.2-9.3c10.8-10.8,16.6-23.3,16.6-36s-5.7-25.2-16.6-36l-29.8-29.8
		c-3.5-3.5-6.8-6.9-10.2-10.4c-6.6-6.8-13.5-13.8-20.3-20.1c-10.3-10.1-22.4-15.4-35.2-15.4c-12.7,0-24.9,5.3-35.6,15.5l-37.4,37.4
		c-13.6,13.6-21.3,30.1-22.9,49.2c-1.9,23.9,2.5,49.3,13.9,80C32.739,229.6,59.139,273.7,98.339,320.8z M25.739,104.2
		c1.2-13.3,6.3-24.4,15.9-34l37.2-37.2c5.8-5.6,12.2-8.5,18.4-8.5c6.1,0,12.3,2.9,18,8.7c6.7,6.2,13,12.7,19.8,19.6
		c3.4,3.5,6.9,7,10.4,10.6l29.8,29.8c6.2,6.2,9.4,12.5,9.4,18.7s-3.2,12.5-9.4,18.7c-3.1,3.1-6.2,6.3-9.3,9.4
		c-9.3,9.4-18,18.3-27.6,26.8c-0.2,0.2-0.3,0.3-0.5,0.5c-8.3,8.3-7,16.2-5,22.2c0.1,0.3,0.2,0.5,0.3,0.8
		c7.7,18.5,18.4,36.1,35.1,57.1c30,37,61.6,65.7,96.4,87.8c4.3,2.8,8.9,5,13.2,7.2c4,2,7.7,3.9,11,6c0.4,0.2,0.7,0.4,1.1,0.6
		c3.3,1.7,6.5,2.5,9.7,2.5c8,0,13.2-5.1,14.9-6.8l37.4-37.4c5.8-5.8,12.1-8.9,18.3-8.9c7.6,0,13.8,4.7,17.7,8.9l60.3,60.2
		c12,12,11.9,25-0.3,37.7c-4.2,4.5-8.6,8.8-13.3,13.3c-7,6.8-14.3,13.8-20.9,21.7c-11.5,12.4-25.2,18.2-42.9,18.2
		c-1.7,0-3.5-0.1-5.2-0.2c-32.8-2.1-63.3-14.9-86.2-25.8c-62.2-30.1-116.8-72.8-162.1-127c-37.3-44.9-62.4-86.7-79-131.5
		C28.039,146.4,24.139,124.3,25.739,104.2z"/>
</g>
<g>
</g>
<g>
</g>
<g>
</g>
<g>
</g>
<g>
</g>
<g>
</g>
<g>
</g>
<g>
</g>
<g>
</g>
<g>
</g>
<g>
</g>
<g>
</g>
<g>
</g>
<g>
</g>
<g>
</g>
</symbol><symbol id="play" viewBox="0 0 72 72">
<circle cx="35.7451" cy="35.5647" r="34.5566" stroke-width="2"/>
<path d="M43.7119 34.4255L30.9619 43.3663L30.9619 25.4847L43.7119 34.4255Z"/>
</symbol><symbol id="prev" viewBox="0 0 443.52 443.52">
<g>
	<g>
		<path d="M143.492,221.863L336.226,29.129c6.663-6.664,6.663-17.468,0-24.132c-6.665-6.662-17.468-6.662-24.132,0l-204.8,204.8
			c-6.662,6.664-6.662,17.468,0,24.132l204.8,204.8c6.78,6.548,17.584,6.36,24.132-0.42c6.387-6.614,6.387-17.099,0-23.712
			L143.492,221.863z"/>
	</g>
</g>
<g>
</g>
<g>
</g>
<g>
</g>
<g>
</g>
<g>
</g>
<g>
</g>
<g>
</g>
<g>
</g>
<g>
</g>
<g>
</g>
<g>
</g>
<g>
</g>
<g>
</g>
<g>
</g>
<g>
</g>
</symbol><symbol id="return" viewBox="0 0 67 66">
<g clip-path="url(#clip0)">
<path d="M37.8572 4.1897C23.893 4.1897 12.2271 14.178 9.60532 27.3798L4.12913 20.534L0.66748 23.3042L9.53223 34.3851C9.96433 34.9237 10.6071 35.2161 11.2631 35.2161C11.5977 35.2161 11.9367 35.1407 12.2537 34.9835L25.5508 28.3349L23.5673 24.3701L13.7962 29.2546C15.609 17.5886 25.6904 8.62201 37.8572 8.62201C51.2984 8.62201 62.2352 19.5588 62.2352 33C62.2352 46.4412 51.2984 57.378 37.8572 57.378V61.8103C53.7427 61.8103 66.6675 48.8855 66.6675 33C66.6675 17.1145 53.7427 4.1897 37.8572 4.1897Z"/>
</g>

</symbol><symbol id="screpka" viewBox="0 0 23 22">
<path d="M21.0671 2.12554C18.6559 -0.233704 14.8012 -0.233191 12.3906 2.12671L2.28033 12.237C0.452196 14.1082 0.487133 17.1071 2.35837 18.9353C4.19882 20.7334 7.13815 20.7334 8.9786 18.9353L18.1336 9.78028C19.3238 8.59011 19.3238 6.66043 18.1336 5.47027C16.9434 4.2801 15.0138 4.2801 13.8236 5.47027L5.06662 14.2272C4.76118 14.5435 4.76995 15.0474 5.08621 15.3528C5.39472 15.6508 5.8838 15.6508 6.19232 15.3528L14.9492 6.59592C15.5299 6.03962 16.4517 6.05945 17.0079 6.64014C17.5474 7.20329 17.5474 8.09147 17.0079 8.65463L7.85295 17.8096C6.61619 19.0288 4.62521 19.0145 3.40603 17.7777C2.19917 16.5535 2.19917 14.5869 3.40603 13.3627L13.5163 3.25236C15.3172 1.45081 18.2375 1.4503 20.039 3.25115C21.8406 5.05199 21.8411 7.97234 20.0402 9.77389L9.92994 19.8842C9.596 20.1702 9.5571 20.6727 9.84308 21.0067C10.1291 21.3406 10.6316 21.3795 10.9656 21.0935C10.9967 21.0668 11.0257 21.0378 11.0524 21.0067L21.1627 10.8964C23.5583 8.44798 23.5155 4.52112 21.0671 2.12554Z"/>
</symbol></svg>